$MeshFormat
2.2 0 8
$EndMeshFormat
$PhysicalNames
1
3 1 "Tube"
$EndPhysicalNames
$Nodes
41
1 10 0 0
2 8 0 0
3 9.629172873477993 2.697967711570246 0
4 8.544194045464881 5.195839500354344 0
5 6.82553143218653 7.30835964278125 0
6 4.600650377311505 8.878852184023762 0
7 2.03456013052632 9.790840876823232 0
8 -0.6824241336467243 9.976687691905392 0
9 -3.348796121709874 9.4226092211882 0
10 -5.766803221148685 8.169698930104412 0
11 -7.75711290704421 6.310879443260513 0
12 -9.172113015054537 3.984010898462398 0
13 -9.906859460363309 1.361666490962449 0
14 -9.906859460363307 -1.361666490962477 0
15 -9.172113015054526 -3.984010898462424 0
16 -7.757112907044192 -6.310879443260536 0
17 -5.766803221148665 -8.169698930104424 0
18 -3.348796121709856 -9.422609221188207 0
19 -0.6824241336467046 -9.976687691905394 0
20 2.034560130526342 -9.790840876823228 0
21 4.600650377311524 -8.878852184023751 0
22 6.825531432186548 -7.308359642781234 0
23 8.544194045464886 -5.195839500354335 0
24 9.629172873477994 -2.697967711570235 0
25 7.517540966287267 2.736161146605352 0
26 6.128355544951822 5.142300877492317 0
27 3.999999999999996 6.928203230275511 0
28 1.389185421335436 7.878462024097666 0
29 -1.38918542133545 7.878462024097663 0
30 -4.000000000000008 6.928203230275504 0
31 -6.12835554495183 5.142300877492308 0
32 -7.51754096628727 2.736161146605341 0
33 -8 -9.67842359708362e-15 0
34 -7.517540966287264 -2.736161146605359 0
35 -6.128355544951818 -5.142300877492323 0
36 -3.999999999999991 -6.928203230275514 0
37 -1.389185421335422 -7.878462024097669 0
38 1.389185421335468 -7.87846202409766 0
39 4.000000000000025 -6.928203230275495 0
40 6.12835554495185 -5.142300877492284 0
41 7.517540966287273 -2.736161146605335 0
$EndNodes
$Elements
43
1 15 2 0 1 1
2 15 2 0 2 2
3 1 2 0 1 1 3
4 1 2 0 1 3 4
5 1 2 0 1 4 5
6 1 2 0 1 5 6
7 1 2 0 1 6 7
8 1 2 0 1 7 8
9 1 2 0 1 8 9
10 1 2 0 1 9 10
11 1 2 0 1 10 11
12 1 2 0 1 11 12
13 1 2 0 1 12 13
14 1 2 0 1 13 14
15 1 2 0 1 14 15
16 1 2 0 1 15 16
17 1 2 0 1 16 17
18 1 2 0 1 17 18
19 1 2 0 1 18 19
20 1 2 0 1 19 20
21 1 2 0 1 20 21
22 1 2 0 1 21 22
23 1 2 0 1 22 23
24 1 2 0 1 23 24
25 1 2 0 1 24 1
26 1 2 0 2 2 25
27 1 2 0 2 25 26
28 1 2 0 2 26 27
29 1 2 0 2 27 28
30 1 2 0 2 28 29
31 1 2 0 2 29 30
32 1 2 0 2 30 31
33 1 2 0 2 31 32
34 1 2 0 2 32 33
35 1 2 0 2 33 34
36 1 2 0 2 34 35
37 1 2 0 2 35 36
38 1 2 0 2 36 37
39 1 2 0 2 37 38
40 1 2 0 2 38 39
41 1 2 0 2 39 40
42 1 2 0 2 40 41
43 1 2 0 2 41 2
$EndElements
