$MeshFormat
4.1 0 8
$EndMeshFormat
$PhysicalNames
1
3 1 "Tube"
$EndPhysicalNames
$Entities
4 6 4 1
3 8 -1.959434878635765e-15 100 0 
4 8 -1.959434878635765e-15 0 0 
5 10 -2.449293598294707e-15 100 0 
6 10 -2.449293598294707e-15 0 0 
4 -8.000000099999999 -8.000000099999999 99.99999990000001 8.000000099999999 8.000000099999999 100.0000001 0 2 3 -3 
5 7.9999999 -1.000000019594349e-07 -1.000000011686097e-07 8.000000099999999 9.999999804056511e-08 100.0000001 0 2 4 -3 
6 -8.000000099999999 -8.000000099999999 -1e-07 8.000000099999999 8.000000099999999 1e-07 0 2 4 -4 
7 -10.0000001 -10.0000001 99.99999990000001 10.0000001 10.0000001 100.0000001 0 2 5 -5 
8 9.999999900000001 -1.000000024492936e-07 -1.000000011686097e-07 10.0000001 9.99999975507064e-08 100.0000001 0 2 6 -5 
9 -10.0000001 -10.0000001 -1e-07 10.0000001 10.0000001 1e-07 0 2 6 -6 
4 -8.000000099999999 -8.000000099999999 -1.000000011686097e-07 8.000000099999999 8.000000099999999 100.0000001 0 4 -4 -5 6 5 
5 -10.0000001 -10.0000001 -1.000000011686097e-07 10.0000001 10.0000001 100.0000001 0 4 -7 -8 9 8 
6 -10.0000001 -10.0000001 99.99999990000001 10.0000001 10.0000001 100.0000001 0 2 7 -4 
7 -10.0000001 -10.0000001 -1e-07 10.0000001 10.0000001 1e-07 0 2 9 -6 
1 -10.0000001 -10.0000001 -1.000000011686097e-07 10.0000001 10.0000001 100.0000001 1 1 4 5 6 -7 -4 
$EndEntities
$Nodes
15 169 1 169
0 3 0 1
1
8 -1.959434878635765e-15 100
0 4 0 1
2
8 -1.959434878635765e-15 0
0 5 0 1
3
10 -2.449293598294707e-15 100
0 6 0 1
4
10 -2.449293598294707e-15 0
1 4 0 6
5
6
7
8
9
10
4.987918414869862 6.254651859744244 100
-1.780167471650525 7.799423297454586 100
-7.20775094321936 3.47106991294045 100
-7.207750943219351 -3.47106991294047 100
-1.780167471650517 -7.799423297454589 100
4.987918414869878 -6.25465185974423 100
1 5 0 9
11
12
13
14
15
16
17
18
19
8 -1.959434878635765e-15 10
8 -1.959434878635765e-15 20
8 -1.959434878635765e-15 29.99999999999998
8 -1.959434878635765e-15 39.99999999999996
8 -1.959434878635765e-15 49.99999999999993
8 -1.959434878635765e-15 59.99999999999991
8 -1.959434878635765e-15 69.99999999999989
8 -1.959434878635765e-15 79.99999999999986
8 -1.959434878635765e-15 89.99999999999991
1 6 0 6
20
21
22
23
24
25
4.987918414869862 6.254651859744244 0
-1.780167471650525 7.799423297454586 0
-7.20775094321936 3.47106991294045 0
-7.207750943219351 -3.47106991294047 0
-1.780167471650517 -7.799423297454589 0
4.987918414869878 -6.25465185974423 0
1 7 0 6
26
27
28
29
30
31
6.234898018587355 7.818314824680282 100
-2.225209339563091 9.749279121818248 100
-9.009688679024157 4.338837391175653 100
-9.00968867902424 -4.33883739117548 100
-2.22520933956325 -9.749279121818212 100
6.234898018587291 -7.818314824680332 100
1 8 0 9
32
33
34
35
36
37
38
39
40
10 -2.449293598294707e-15 10
10 -2.449293598294707e-15 20
10 -2.449293598294707e-15 29.99999999999998
10 -2.449293598294707e-15 39.99999999999996
10 -2.449293598294707e-15 49.99999999999993
10 -2.449293598294707e-15 59.99999999999991
10 -2.449293598294707e-15 69.99999999999989
10 -2.449293598294707e-15 79.99999999999986
10 -2.449293598294707e-15 89.99999999999991
1 9 0 6
41
42
43
44
45
46
6.234898018587355 7.818314824680282 0
-2.225209339563091 9.749279121818248 0
-9.009688679024157 4.338837391175653 0
-9.00968867902424 -4.33883739117548 0
-2.22520933956325 -9.749279121818212 0
6.234898018587291 -7.818314824680332 0
2 4 0 54
47
48
49
50
51
52
53
54
55
56
57
58
59
60
61
62
63
64
65
66
67
68
69
70
71
72
73
74
75
76
77
78
79
80
81
82
83
84
85
86
87
88
89
90
91
92
93
94
95
96
97
98
99
100
3.469058765817232 7.208719115023599 44.93452652420785
3.752751641233509 7.065186134789316 64.9999999999999
3.312499999999983 7.28198762358191 24.99999999999999
-7.996519813359681 -0.2359467621012178 93.99643140265371
3.57818847415227 -7.155177652822035 75.02084593062627
-7.998141155096 0.172447276463375 6.36585164306743
3.312499999422907 -7.281987623844416 24.99999999999999
-6.862238079008903 -4.112139169215969 42.40652857694896
3.312500000705284 -7.281987623261076 54.99999999999991
3.312500000015538 7.281987623574834 84.99999999999989
0.6964980103672624 -7.969622984906779 5.692482491231603
1.051908287991013 -7.930541529659612 94.42565454756112
0.7657581616515451 7.963266568303742 5.660118082366734
3.782738351209929 -7.049176587821132 85.6529179626225
-4.416357469999878 -6.67051622418957 79.99434066211491
-4.799011752338263 -6.400741066542158 70.70467810410801
-7.967332318367946 0.7222296924730016 75.78094393450893
-7.999913526117732 0.03719643314298755 84.80778829806135
3.587345157775959 7.150591214646617 15.44903274014491
-4.249067637814311 6.77830540838041 19.94553885091045
-5.323207150392649 5.971889620045617 29.28212912111754
3.448284270972744 -7.218679629029257 14.6052815886469
1.520110174353561 7.854251400218024 94.55424029484311
3.920419666720095 -6.973543549501523 65.3619013862305
-5.473882048544245 -5.834090787657068 60.30811100965914
-7.91930412432557 1.133411746207008 66.47638066196055
-7.440888731413886 2.93822648662724 56.87102170559697
2.956170927201288 7.433777871928235 34.43258944377776
3.524914777910307 7.18157195942988 75.34538397900378
-4.661435575673794 -6.501616596958231 12.10732218588888
2.124910540992862 -7.712636072885679 35.17775121939698
1.794202507100509 -7.796206600874187 44.92708646124626
-0.4466201565501462 7.987523423174615 55.65827154067905
-4.299750519645108 -6.74626900359092 88.37803611347954
-4.619131514070387 6.531739741885144 89.14449961524375
-4.123768582915956 6.855255843114488 80.8828984847506
-4.66003003381227 6.502624092162149 11.90984023510169
-7.500290633831695 -2.783099065440637 30.99226956177791
-5.770721706113211 -5.540647163517439 22.03221381516104
-7.591953954519722 -2.522347151454841 50.96217080853632
-7.985636462368112 0.4791766802515489 15.31441791948705
-6.032933761594663 5.253923317694242 38.79270759984566
-5.79918714194776 5.510846440672047 48.12091679848561
-4.987918414869879 6.25465185974423 5.448703577599403
-4.987918414869863 -6.254651859744242 5.426966365521462
-4.987918414869863 -6.254651859744242 94.87546821870497
-3.910792109057287 6.978947275895933 71.39898074951265
-4.987918414869879 6.25465185974423 95.4323030193719
-7.919920469007254 1.129096880077135 22.66432572925505
6.297580628037401 -4.93360702056498 94.78030667940311
6.593289662538908 4.530842242437666 94.81616980541673
6.564361452428064 -4.572653356846168 5.16641393850305
6.26688528628012 4.972539472805192 5.273622731149459
-3.796496726403309 7.041776239444772 62.806986402935
2 5 0 69
101
102
103
104
105
106
107
108
109
110
111
112
113
114
115
116
117
118
119
120
121
122
123
124
125
126
127
128
129
130
131
132
133
134
135
136
137
138
139
140
141
142
143
144
145
146
147
148
149
150
151
152
153
154
155
156
157
158
159
160
161
162
163
164
165
166
167
168
169
6.364740164701235 7.712981436243633 44.98566306672777
6.250000000020346 7.806247497981708 64.9999999999999
-10 9.44833808676605e-14 7.449551208545191
6.264645191564895 -7.794499382500639 34.95342640406319
6.293048102476168 -7.771585782832299 74.97850719818496
6.24999999988526 -7.806247498089864 54.99999999999991
-6.229055211381046 7.82297073838108 92.67575242192221
6.250000000000191 7.806247497997845 24.99999999999999
-6.234898018587421 -7.818314824680231 92.55044879145481
6.294857348810464 -7.770120395343105 14.27245225176941
2.039408432133823 9.789832135789737 7.111476998378642
6.250000000016875 7.806247497984487 84.99999999999989
6.322953976837084 -7.747273908078899 24.85321202959077
-2.036631557512175 -9.79041020074979 29.86482645702657
-2.097337328654431 -9.77758539363542 39.70748695116773
-8.789761027733663 -4.768658204918283 34.59857515980399
-8.90561208405887 -4.548634235489223 44.38736833084673
-8.777050391225703 -4.792012774386638 24.94402519506013
-9.403862309121459 3.401084190531722 29.57292048992909
-8.992022029219154 4.375333110294284 20.01028147533548
-9.062574776740369 -4.227261337555233 15.28325631194971
-2.203506860370657 -9.754207170052286 20.16818314530842
-1.976414907202432 -9.802743703402022 10.88960915353731
6.201374589230355 -7.844931688934458 44.8037234434536
6.328782343891812 -7.742513419016027 64.93952009574875
-1.872055661204345 -9.823207602476533 59.89810886245385
-1.899656109925667 -9.817907448332464 69.89364338726237
-1.972706341403799 -9.803490689065056 79.40277223119801
-8.652418261959429 -5.013547468620494 74.62674884889951
6.327411907624301 7.743633420510956 75.15581512785148
-1.846499366315526 9.828043553535789 80.00087580063891
6.30490660688965 7.76196835077284 34.88968924839628
-1.936363317252149 9.810733769886951 40.11820053276715
-1.788465740011184 9.838769755249192 50.06198975580494
-1.945082999217465 9.809008722911566 29.99956145456483
-8.749201640188558 -4.84267185129468 64.95393701813263
-9.446751600704449 3.280073809320141 69.91062265985025
-9.442681843643134 3.291771498711949 60.26993305273235
-1.891113003511564 9.81955658917191 70.15286335354207
-2.202210115799918 9.754500018241249 60.28587060429202
6.249999999888844 -7.806247498086993 84.99999999999989
-2.223771449587187 -9.749607199267102 50.15146290782589
6.562702963580112 7.545258763741427 54.9381516841563
-8.951490790242588 -4.45766896844103 84.41294540102317
-9.312446225032323 3.643946391740862 39.24349291139705
-9.51181552347442 3.086319077378594 79.30953691049336
6.522662691766325 7.579899168817464 15.55788323449293
-1.614436360319426 9.86881934369449 19.9957437497011
-6.438812968850644 7.651253985600058 11.67920736427044
2.225209339563182 9.749279121818228 92.55982113274685
2.225209339563064 -9.749279121818255 92.55982113279657
-8.937358725726691 -4.485935689204314 54.22647684009694
-9.227354048179693 3.854340056292624 48.85915219709273
-9.999983990969207 -0.01789358431355172 92.62808612150556
4.110068351507405 -9.116322621865528 6.29897938938494
-8.14376535173705 5.803368495610728 86.45819064301456
-7.886112712377903 -6.148920741697005 6.829452708506788
-2.219324706936323 -9.75062038257987 86.96693148969078
-2.219532911184581 9.750572991171776 87.16463461156712
-6.215930718298416 7.833403175205151 4.986197362879087
8.141299147978355 5.80682772115093 6.60163320509273
7.64171274167214 6.450133826035369 93.23738418751401
7.714866873796255 -6.362454645779505 93.28858036461412
-6.215945634446456 7.833391338979947 24.8852652182299
-6.373046231029026 7.70611975881291 54.75146069406704
9.00968867902418 -4.338837391175607 4.900947203097296
-0.3608767567562943 9.993486276892217 13.4087744201741
-6.422867167366164 7.664644633012658 75.09936121191446
-9.725223652940013 2.328094693154923 13.54765882250482
2 6 0 0
2 7 0 0
3 1 0 0
$EndNodes
$Elements
15 859 1 859
0 3 15 1
1 1 
0 4 15 1
2 2 
0 5 15 1
3 3 
0 6 15 1
4 4 
1 4 1 7
5 1 5 
6 5 6 
7 6 7 
8 7 8 
9 8 9 
10 9 10 
11 10 1 
1 5 1 10
12 2 11 
13 11 12 
14 12 13 
15 13 14 
16 14 15 
17 15 16 
18 16 17 
19 17 18 
20 18 19 
21 19 1 
1 6 1 7
22 2 20 
23 20 21 
24 21 22 
25 22 23 
26 23 24 
27 24 25 
28 25 2 
1 7 1 7
29 3 26 
30 26 27 
31 27 28 
32 28 29 
33 29 30 
34 30 31 
35 31 3 
1 8 1 10
36 4 32 
37 32 33 
38 33 34 
39 34 35 
40 35 36 
41 36 37 
42 37 38 
43 38 39 
44 39 40 
45 40 3 
1 9 1 7
46 4 41 
47 41 42 
48 42 43 
49 43 44 
50 44 45 
51 45 46 
52 46 4 
2 4 2 140
53 1 97 5 
54 10 96 1 
55 1 96 19 
56 19 97 1 
57 11 98 2 
58 2 99 11 
59 20 99 2 
60 2 98 25 
61 5 69 6 
62 5 97 69 
63 6 94 7 
64 69 94 6 
65 7 50 8 
66 7 94 50 
67 8 92 9 
68 50 92 8 
69 9 58 10 
70 9 92 58 
71 58 96 10 
72 11 65 12 
73 12 68 11 
74 11 99 65 
75 68 98 11 
76 12 49 13 
77 13 53 12 
78 12 65 49 
79 53 68 12 
80 13 74 14 
81 14 77 13 
82 49 74 13 
83 13 77 53 
84 14 47 15 
85 15 78 14 
86 14 74 47 
87 14 78 77 
88 16 55 15 
89 15 79 16 
90 47 79 15 
91 55 78 15 
92 16 48 17 
93 17 70 16 
94 16 79 48 
95 16 70 55 
96 18 51 17 
97 17 75 18 
98 48 75 17 
99 51 70 17 
100 18 56 19 
101 19 60 18 
102 18 60 51 
103 18 75 56 
104 56 97 19 
105 19 96 60 
106 21 59 20 
107 59 99 20 
108 22 90 21 
109 21 90 59 
110 23 52 22 
111 52 90 22 
112 24 91 23 
113 23 91 52 
114 25 57 24 
115 57 91 24 
116 25 98 57 
117 74 88 47 
118 47 89 79 
119 88 89 47 
120 48 93 75 
121 79 100 48 
122 48 100 93 
123 65 66 49 
124 66 67 49 
125 67 74 49 
126 64 80 50 
127 50 81 64 
128 80 92 50 
129 50 94 81 
130 60 61 51 
131 61 62 51 
132 62 70 51 
133 76 87 52 
134 52 91 76 
135 52 87 83 
136 83 90 52 
137 53 85 68 
138 77 84 53 
139 84 85 53 
140 77 78 54 
141 54 84 77 
142 78 86 54 
143 54 88 84 
144 86 89 54 
145 54 89 88 
146 70 71 55 
147 71 86 55 
148 55 86 78 
149 56 81 69 
150 69 97 56 
151 75 82 56 
152 56 82 81 
153 68 76 57 
154 57 98 68 
155 76 91 57 
156 58 80 60 
157 60 96 58 
158 58 92 80 
159 59 83 65 
160 65 99 59 
161 59 90 83 
162 60 80 61 
163 61 63 62 
164 61 64 63 
165 61 80 64 
166 63 72 62 
167 62 71 70 
168 62 72 71 
169 64 82 63 
170 63 93 72 
171 82 93 63 
172 81 82 64 
173 65 83 66 
174 66 95 67 
175 83 87 66 
176 87 95 66 
177 67 88 74 
178 84 88 67 
179 67 95 84 
180 68 85 76 
181 81 94 69 
182 72 73 71 
183 73 86 71 
184 72 100 73 
185 93 100 72 
186 79 89 73 
187 73 100 79 
188 73 89 86 
189 75 93 82 
190 85 87 76 
191 84 95 85 
192 85 95 87 
2 5 2 170
193 3 162 26 
194 31 163 3 
195 40 162 3 
196 3 163 40 
197 4 161 32 
198 32 166 4 
199 41 161 4 
200 4 166 46 
201 26 150 27 
202 26 162 150 
203 27 107 28 
204 27 150 107 
205 28 154 29 
206 107 154 28 
207 29 109 30 
208 29 154 109 
209 30 151 31 
210 109 151 30 
211 151 163 31 
212 33 110 32 
213 32 147 33 
214 110 166 32 
215 32 161 147 
216 33 108 34 
217 34 113 33 
218 33 147 108 
219 33 113 110 
220 35 104 34 
221 34 132 35 
222 104 113 34 
223 108 132 34 
224 35 101 36 
225 36 124 35 
226 35 132 101 
227 35 124 104 
228 37 106 36 
229 36 143 37 
230 101 143 36 
231 106 124 36 
232 37 102 38 
233 38 125 37 
234 37 143 102 
235 37 125 106 
236 39 105 38 
237 38 130 39 
238 102 130 38 
239 105 125 38 
240 39 112 40 
241 40 141 39 
242 39 141 105 
243 39 130 112 
244 112 162 40 
245 40 163 141 
246 42 111 41 
247 111 161 41 
248 43 160 42 
249 42 160 111 
250 44 103 43 
251 103 160 43 
252 45 157 44 
253 44 157 103 
254 46 155 45 
255 45 155 123 
256 123 157 45 
257 46 166 155 
258 132 133 101 
259 133 134 101 
260 134 143 101 
261 102 139 130 
262 102 140 139 
263 102 143 140 
264 103 157 121 
265 121 169 103 
266 149 160 103 
267 103 169 149 
268 104 114 113 
269 104 115 114 
270 104 124 115 
271 105 127 125 
272 105 128 127 
273 105 141 128 
274 106 142 124 
275 125 126 106 
276 126 142 106 
277 150 159 107 
278 107 156 154 
279 107 159 156 
280 108 135 132 
281 108 148 135 
282 147 148 108 
283 109 154 144 
284 144 158 109 
285 109 158 151 
286 113 122 110 
287 122 123 110 
288 123 155 110 
289 155 166 110 
290 147 161 111 
291 111 167 147 
292 111 160 149 
293 149 167 111 
294 130 131 112 
295 131 159 112 
296 112 159 150 
297 150 162 112 
298 114 122 113 
299 115 116 114 
300 116 118 114 
301 118 122 114 
302 115 117 116 
303 115 142 117 
304 124 142 115 
305 117 145 116 
306 116 119 118 
307 116 145 119 
308 142 152 117 
309 117 153 145 
310 152 153 117 
311 119 120 118 
312 120 121 118 
313 121 122 118 
314 119 164 120 
315 119 145 135 
316 135 164 119 
317 120 169 121 
318 148 149 120 
319 120 164 148 
320 149 169 120 
321 121 123 122 
322 121 157 123 
323 125 127 126 
324 127 136 126 
325 136 152 126 
326 126 152 142 
327 128 129 127 
328 129 136 127 
329 128 144 129 
330 141 158 128 
331 128 158 144 
332 129 137 136 
333 129 146 137 
334 144 146 129 
335 130 139 131 
336 139 168 131 
337 146 156 131 
338 131 168 146 
339 156 159 131 
340 132 135 133 
341 133 153 134 
342 135 145 133 
343 145 153 133 
344 140 143 134 
345 134 165 140 
346 153 165 134 
347 148 164 135 
348 137 138 136 
349 138 152 136 
350 137 140 138 
351 139 140 137 
352 137 168 139 
353 146 168 137 
354 140 165 138 
355 138 153 152 
356 138 165 153 
357 151 158 141 
358 141 163 151 
359 144 156 146 
360 154 156 144 
361 147 167 148 
362 148 167 149 
2 6 2 14
363 3 1 10 
364 26 1 3 
365 26 5 1 
366 10 31 3 
367 27 6 5 
368 27 5 26 
369 28 7 6 
370 28 6 27 
371 29 8 7 
372 29 7 28 
373 30 9 8 
374 30 8 29 
375 10 9 31 
376 31 9 30 
2 7 2 14
377 4 25 2 
378 41 4 2 
379 41 2 20 
380 25 4 46 
381 42 20 21 
382 42 41 20 
383 43 21 22 
384 43 42 21 
385 44 22 23 
386 44 43 22 
387 45 23 24 
388 45 44 23 
389 25 46 24 
390 46 45 24 
3 1 4 469
391 137 93 139 168 
392 116 84 118 119 
393 55 126 142 106 
394 72 137 138 136 
395 49 148 135 108 
396 47 133 134 101 
397 122 123 68 110 
398 128 127 51 105 
399 155 45 123 57 
400 123 45 157 91 
401 152 117 153 86 
402 56 131 159 112 
403 144 109 158 80 
404 94 27 107 28 
405 169 120 121 87 
406 70 127 126 125 
407 30 109 29 92 
408 102 139 140 48 
409 73 138 153 152 
410 153 138 73 165 
411 150 56 159 112 
412 148 167 147 65 
413 117 54 115 116 
414 60 151 158 141 
415 27 69 150 26 
416 95 66 164 67 
417 60 158 128 141 
418 122 114 85 118 
419 67 66 164 49 
420 58 30 109 151 
421 82 168 93 63 
422 151 58 30 31 
423 54 84 77 116 
424 26 3 97 162 
425 136 71 72 62 
426 3 40 97 162 
427 91 123 45 57 
428 134 79 89 47 
429 138 72 73 100 
430 159 107 156 81 
431 55 142 86 78 
432 111 160 42 59 
433 28 154 50 29 
434 114 84 77 53 
435 146 63 82 64 
436 96 3 31 163 
437 69 107 27 150 
438 50 29 109 92 
439 63 129 62 61 
440 77 54 115 78 
441 52 169 87 83 
442 113 53 114 104 
443 88 133 47 74 
444 92 30 109 58 
445 16 15 79 143 
446 79 140 134 165 
447 70 126 71 55 
448 94 107 27 69 
449 44 103 52 43 
450 29 154 50 109 
451 60 128 61 51 
452 85 122 68 53 
453 142 55 106 124 
454 116 54 115 77 
455 102 17 38 130 
456 141 105 18 39 
457 17 38 105 125 
458 69 56 81 150 
459 139 102 130 48 
460 114 84 118 116 
461 73 71 152 86 
462 113 12 33 110 
463 85 76 121 87 
464 39 18 112 130 
465 111 42 41 59 
466 127 62 51 70 
467 150 69 56 162 
468 86 152 117 142 
469 93 139 75 48 
470 130 75 139 48 
471 13 14 77 104 
472 132 101 14 35 
473 62 127 71 70 
474 132 13 108 34 
475 163 96 3 40 
476 8 30 92 9 
477 101 47 133 132 
478 134 143 47 101 
479 66 148 49 65 
480 40 18 19 112 
481 40 39 18 112 
482 113 34 13 104 
483 143 15 79 47 
484 104 35 14 124 
485 141 18 19 40 
486 18 141 39 40 
487 17 18 105 39 
488 105 38 17 39 
489 103 52 43 160 
490 126 71 136 127 
491 137 72 93 63 
492 97 56 69 162 
493 56 19 18 112 
494 39 17 18 130 
495 39 38 17 130 
496 55 142 78 124 
497 156 82 81 64 
498 56 97 19 162 
499 74 67 135 49 
500 147 108 12 33 
501 116 117 54 145 
502 22 44 23 52 
503 12 32 110 11 
504 30 8 92 29 
505 167 66 83 65 
506 75 18 17 130 
507 49 13 12 108 
508 143 102 140 48 
509 56 159 81 150 
510 115 54 117 142 
511 130 17 75 48 
512 147 12 11 32 
513 61 64 144 80 
514 74 14 13 132 
515 111 147 167 65 
516 14 15 78 124 
517 65 59 111 99 
518 84 114 85 53 
519 32 12 110 33 
520 131 82 75 56 
521 147 11 12 65 
522 130 102 17 48 
523 17 18 51 105 
524 32 147 12 33 
525 35 14 34 104 
526 6 28 94 7 
527 58 151 60 96 
528 36 106 15 124 
529 106 37 16 125 
530 108 12 49 147 
531 127 126 71 70 
532 33 108 13 34 
533 34 132 14 35 
534 50 8 7 29 
535 66 148 167 149 
536 22 44 52 43 
537 80 58 151 60 
538 108 13 12 33 
539 65 161 11 99 
540 153 73 152 86 
541 137 72 129 136 
542 79 134 143 47 
543 57 24 25 46 
544 120 95 164 119 
545 79 16 143 48 
546 118 84 85 95 
547 74 47 14 132 
548 18 19 60 141 
549 102 37 16 143 
550 9 31 58 10 
551 12 49 147 65 
552 166 98 155 110 
553 33 13 113 34 
554 28 6 94 27 
555 7 28 50 29 
556 4 161 41 99 
557 13 33 113 12 
558 14 13 34 104 
559 111 149 160 59 
560 138 137 72 100 
561 14 13 132 34 
562 68 123 76 57 
563 76 91 157 52 
564 116 115 114 77 
565 72 63 129 62 
566 167 83 66 149 
567 16 38 37 102 
568 16 17 38 102 
569 45 23 91 24 
570 92 109 50 80 
571 16 38 125 37 
572 52 103 76 87 
573 38 16 125 17 
574 11 12 68 110 
575 16 37 106 36 
576 9 31 30 58 
577 42 20 59 21 
578 88 67 84 119 
579 101 143 15 36 
580 101 14 47 132 
581 161 147 11 32 
582 111 161 65 99 
583 5 27 69 6 
584 36 15 35 124 
585 83 52 169 149 
586 57 155 45 46 
587 66 148 164 49 
588 161 11 147 65 
589 60 19 96 163 
590 87 169 120 83 
591 52 103 169 149 
592 67 95 84 119 
593 103 52 169 87 
594 35 101 15 36 
595 21 43 22 160 
596 32 11 166 110 
597 162 40 19 112 
598 54 86 142 78 
599 163 141 19 40 
600 96 151 60 163 
601 20 42 59 41 
602 83 90 52 149 
603 107 81 94 50 
604 89 88 133 47 
605 27 5 69 26 
606 71 136 127 62 
607 16 17 102 48 
608 143 37 16 36 
609 158 80 151 60 
610 103 121 76 87 
611 15 14 35 124 
612 53 77 114 104 
613 93 139 168 131 
614 13 77 53 104 
615 19 56 162 112 
616 83 169 120 149 
617 143 16 102 48 
618 12 13 53 113 
619 95 87 120 66 
620 21 43 160 42 
621 111 161 147 65 
622 114 84 116 77 
623 101 15 14 35 
624 70 16 17 125 
625 3 1 19 96 
626 96 19 3 40 
627 72 129 136 62 
628 166 11 98 110 
629 31 10 3 96 
630 4 161 99 32 
631 113 13 53 104 
632 111 41 161 99 
633 2 32 166 4 
634 32 2 166 11 
635 45 24 57 46 
636 85 114 84 118 
637 28 94 7 50 
638 47 143 15 101 
639 106 55 15 124 
640 168 137 63 146 
641 100 79 140 48 
642 74 133 47 132 
643 86 117 54 142 
644 69 150 26 162 
645 121 103 169 87 
646 47 15 14 101 
647 106 15 16 36 
648 81 159 107 150 
649 103 76 157 52 
650 78 15 55 124 
651 135 88 67 74 
652 32 2 99 4 
653 32 2 11 99 
654 121 76 157 103 
655 115 54 142 78 
656 29 50 8 92 
657 2 41 20 99 
658 19 1 3 97 
659 40 19 3 97 
660 68 98 11 110 
661 83 120 87 66 
662 135 164 148 49 
663 2 11 98 166 
664 63 82 168 146 
665 93 139 131 75 
666 80 109 158 151 
667 3 10 1 96 
668 167 148 66 65 
669 135 67 164 49 
670 97 5 1 26 
671 143 140 79 48 
672 119 116 84 145 
673 137 72 63 129 
674 16 15 143 36 
675 96 31 151 163 
676 109 80 58 151 
677 19 60 141 163 
678 90 21 22 160 
679 66 83 120 149 
680 103 157 44 52 
681 31 151 58 96 
682 94 81 107 69 
683 56 150 162 112 
684 69 81 107 150 
685 55 15 16 106 
686 141 60 151 163 
687 25 4 166 46 
688 80 92 109 58 
689 23 157 91 52 
690 67 164 95 119 
691 155 98 166 46 
692 137 72 100 93 
693 2 41 99 4 
694 84 88 119 145 
695 9 30 92 58 
696 123 91 76 57 
697 54 89 153 86 
698 89 133 134 47 
699 94 27 6 69 
700 153 117 54 86 
701 97 1 3 26 
702 23 44 157 52 
703 4 25 166 2 
704 85 114 122 53 
705 88 135 133 74 
706 145 117 54 153 
707 82 156 146 64 
708 73 153 89 86 
709 99 161 11 32 
710 95 118 84 119 
711 31 58 10 96 
712 157 123 91 76 
713 91 45 24 57 
714 137 93 168 63 
715 59 20 41 99 
716 41 111 59 99 
717 120 95 66 164 
718 26 97 69 162 
719 69 5 97 26 
720 19 96 163 40 
721 166 98 2 25 
722 97 40 19 162 
723 25 166 98 46 
724 76 157 123 121 
725 118 85 122 121 
726 135 164 67 119 
727 95 120 118 119 
728 120 148 66 149 
729 133 135 88 145 
730 146 137 63 129 
731 134 140 79 143 
732 89 133 153 134 
733 138 137 100 140 
734 131 146 82 156 
735 131 146 168 82 
736 61 144 129 128 
737 136 152 71 126 
738 127 136 129 62 
739 139 131 75 130 
740 74 135 133 132 
741 77 115 114 104 
742 114 122 53 113 
743 142 115 78 124 
744 156 144 146 64 
745 120 148 164 66 
746 93 137 140 100 
747 140 137 93 139 
748 140 48 93 100 
749 93 48 140 139 
750 131 156 81 159 
751 81 156 131 82 
752 81 56 131 159 
753 131 56 81 82 
754 54 88 153 89 
755 54 153 88 145 
756 133 153 88 89 
757 133 88 153 145 
758 157 45 23 91 
759 157 23 45 44 
760 51 127 61 62 
761 51 61 127 128 
762 129 61 127 62 
763 129 127 61 128 
764 84 54 145 116 
765 84 145 54 88 
766 120 87 118 121 
767 120 118 87 95 
768 85 118 87 121 
769 85 87 118 95 
770 13 132 49 74 
771 13 49 132 108 
772 135 49 132 74 
773 135 132 49 108 
774 110 12 53 113 
775 53 12 110 68 
776 53 122 110 113 
777 110 122 53 68 
778 125 17 51 105 
779 51 17 125 70 
780 51 127 125 105 
781 125 127 51 70 
782 14 104 78 77 
783 14 78 104 124 
784 115 78 104 77 
785 115 104 78 124 
786 18 130 56 112 
787 18 56 130 75 
788 131 56 130 112 
789 131 130 56 75 
790 93 82 131 168 
791 93 131 82 75 
792 105 128 60 51 
793 60 128 105 141 
794 60 18 105 51 
795 105 18 60 141 
796 72 73 136 138 
797 72 136 73 71 
798 152 136 73 138 
799 152 73 136 71 
800 129 61 64 144 
801 64 61 129 63 
802 64 146 129 144 
803 129 146 64 63 
804 147 148 49 108 
805 49 148 147 65 
806 98 110 57 155 
807 98 57 110 68 
808 123 57 110 155 
809 123 110 57 68 
810 106 126 70 55 
811 70 126 106 125 
812 70 16 106 55 
813 106 16 70 125 
814 160 52 149 103 
815 160 149 52 90 
816 149 90 59 83 
817 149 59 90 160 
818 55 126 86 142 
819 55 86 126 71 
820 152 86 126 142 
821 152 126 86 71 
822 107 50 28 154 
823 28 50 107 94 
824 46 57 98 25 
825 46 98 57 155 
826 121 85 123 76 
827 121 123 85 122 
828 68 123 85 76 
829 68 85 123 122 
830 160 21 59 90 
831 160 59 21 42 
832 22 160 52 90 
833 52 160 22 43 
834 135 88 119 67 
835 135 119 88 145 
836 140 138 73 100 
837 73 138 140 165 
838 73 79 140 100 
839 140 79 73 165 
840 153 134 73 89 
841 153 73 134 165 
842 79 73 134 89 
843 79 134 73 165 
844 50 156 81 64 
845 80 144 50 64 
846 144 156 50 64 
847 144 50 156 154 
848 60 128 80 61 
849 60 80 128 158 
850 144 80 128 61 
851 144 128 80 158 
852 65 111 83 167 
853 65 83 111 59 
854 149 83 111 167 
855 149 111 83 59 
856 50 156 107 81 
857 107 156 50 154 
858 144 50 109 80 
859 144 109 50 154 
$EndElements
