$MeshFormat
2.2 0 8
$EndMeshFormat
$PhysicalNames
1
3 1 "Tube"
$EndPhysicalNames
$Nodes
236
1 8 -1.959434878635765e-15 50
2 8 -1.959434878635765e-15 0
3 10 -2.449293598294707e-15 50
4 10 -2.449293598294707e-15 0
5 6.12835554495182 5.14230087749232 50
6 1.389185421335433 7.878462024097666 50
7 -4.000000000000011 6.928203230275503 50
8 -7.517540966287277 2.736161146605321 50
9 -7.517540966287259 -2.736161146605373 50
10 -3.999999999999985 -6.928203230275518 50
11 1.38918542133544 -7.878462024097665 50
12 6.128355544951809 -5.142300877492333 50
13 8 -1.959434878635765e-15 5.55555555555556
14 8 -1.959434878635765e-15 11.11111111111112
15 8 -1.959434878635765e-15 16.66666666666668
16 8 -1.959434878635765e-15 22.22222222222225
17 8 -1.959434878635765e-15 27.77777777777781
18 8 -1.959434878635765e-15 33.33333333333336
19 8 -1.959434878635765e-15 38.88888888888893
20 8 -1.959434878635765e-15 44.44444444444449
21 6.12835554495182 5.14230087749232 0
22 1.389185421335433 7.878462024097666 0
23 -4.000000000000011 6.928203230275503 0
24 -7.517540966287277 2.736161146605321 0
25 -7.517540966287259 -2.736161146605373 0
26 -3.999999999999985 -6.928203230275518 0
27 1.38918542133544 -7.878462024097665 0
28 6.128355544951809 -5.142300877492333 0
29 8.412535328311813 5.406408174555973 50
30 4.154150130018871 9.096319953545182 50
31 -1.423148382732848 9.898214418809328 50
32 -6.54860733945285 7.557495743542582 50
33 -9.594929736144968 2.817325568414322 50
34 -9.594929736144987 -2.817325568414248 50
35 -6.548607339452913 -7.557495743542529 50
36 -1.423148382732949 -9.898214418809314 50
37 4.154150130018804 -9.096319953545212 50
38 8.412535328311794 -5.406408174556004 50
39 10 -2.449293598294707e-15 5.55555555555556
40 10 -2.449293598294707e-15 11.11111111111112
41 10 -2.449293598294707e-15 16.66666666666668
42 10 -2.449293598294707e-15 22.22222222222225
43 10 -2.449293598294707e-15 27.77777777777781
44 10 -2.449293598294707e-15 33.33333333333336
45 10 -2.449293598294707e-15 38.88888888888893
46 10 -2.449293598294707e-15 44.44444444444449
47 8.412535328311813 5.406408174555973 0
48 4.154150130018871 9.096319953545182 0
49 -1.423148382732848 9.898214418809328 0
50 -6.54860733945285 7.557495743542582 0
51 -9.594929736144968 2.817325568414322 0
52 -9.594929736144987 -2.817325568414248 0
53 -6.548607339452913 -7.557495743542529 0
54 -1.423148382732949 -9.898214418809314 0
55 4.154150130018804 -9.096319953545212 0
56 8.412535328311794 -5.406408174556004 0
57 5.849812474314392 -5.457077424350485 25.02102785547547
58 6.544655719108613 4.600813136646491 19.44548198021541
59 -6.128355544951839 5.142300877492297 45.28545158669814
60 -6.195223434023539 -5.061541919467386 4.735551327112482
61 6.553240740738873 4.588576663184372 30.55555555555559
62 6.306859767140279 -4.921739517449829 36.18445204322904
63 -0.9315662411567204 7.945576400635585 4.830676534481982
64 6.000004868314226 -5.2914971019746 13.92616645334844
65 -6.276633198117081 -4.960229399563546 45.31169451121994
66 6.553240740740504 4.588576663182042 41.66666666666671
67 3.999999999999988 -6.928203230275516 45.28545158669812
68 3.999999999999988 -6.928203230275516 4.714548413301882
69 6.553240740740864 4.588576663181528 8.333333333333341
70 6.558799865101689 4.580627067284792 36.09508389496273
71 2.758304108711229 7.509444616206098 33.33293620567625
72 2.749357705660644 7.512724685912858 27.79900395442129
73 -2.026749165335861 7.739010777923132 30.57527826325719
74 -2.039306703707455 7.735711225751245 25.05277919123508
75 -2.014420926541896 7.742228899400359 36.09991431348794
76 -6.073085898156537 5.2074588499202 33.34613894394885
77 -6.074129579602734 5.206241432184558 38.95234373067686
78 -7.957432926006326 0.8241730571369152 36.11097021859292
79 -7.958761878442525 0.8112393988521589 30.59675701006875
80 -7.005541862062502 -3.862950066838795 33.36208747809968
81 -6.998715745110241 -3.875303590577905 27.84658637359966
82 -2.991362291768854 -7.419686761540772 30.72815222640993
83 -2.919451693033838 -7.448275089713178 36.03632798445857
84 -3.35684282514441 -7.261653134602099 25.07670541815281
85 -6.956270832685788 -3.950986725151702 22.33720997763116
86 -3.402015561982048 -7.240600121262876 19.59138399297465
87 -6.986099286472455 -3.898001636678602 16.80421884829565
88 -3.498466421422173 -7.194493220386098 14.07940853346685
89 -7.963974716299123 0.7583579090035986 19.56107696711938
90 -7.963234457293161 0.766092016783167 14.04254251392918
91 -6.112553492556532 5.161074481213669 16.79335449870576
92 -6.117768038023422 5.154892262010822 11.28126328156326
93 -2.142390088976356 7.707798953440332 14.08638352495759
94 -7.986544854599813 0.4637901308407245 8.4392928099324
95 -1.644288181701451 7.829196406753182 41.78624647330158
96 1.647758400223236 -7.828466788234703 16.76512568028747
97 2.152017640583324 -7.705116486765024 11.37777261348791
98 -7.99292297484242 0.3364257990050613 41.76160197591545
99 1.825414976588281 -7.788957578729467 27.89709789975739
100 6.232075699266882 -5.016097335439894 19.43241291236069
101 6.545958734462741 4.598959039468708 25.02097488650136
102 2.735742816586558 7.517693212781102 22.26346464478898
103 6.46958228550798 -4.705794837329965 30.52463060219928
104 2.301415004198223 -7.661820213138083 33.2903770378238
105 2.523927909392782 -7.5914285815114 38.87577218760708
106 3.032449766601695 7.402989153918661 38.97702812562828
107 6.553666486001201 4.587968569014468 13.89334386927113
108 -7.962468633542843 0.7740111496912503 25.06173966563959
109 -6.081182572333684 5.198001396877946 27.83082027846461
110 -6.102422948319713 5.173048826351916 22.32033893850688
111 -6.796285354178695 -4.220249445776418 11.19953851174176
112 1.704651686833254 -7.816275495821302 22.27013111030269
113 -2.0711554608803 7.727244984913169 19.55040365858462
114 -6.740707835994184 -4.308463516123423 38.88609968202668
115 2.727320760243158 7.520752719691473 16.73765605718861
116 1.987020379328368 7.749306421360156 10.45000730937354
117 -2.736092075394675 -7.51756610579265 8.813788511579784
118 -2.901563316987897 -7.455261921455891 41.39805377183427
119 -6.127879122715657 5.14286860199496 5.784720487314583
120 6.067187276783557 -5.214330115022996 41.62577813226775
121 6.180977896581876 -5.078928257217885 8.463444936359153
122 3.820945367442978 7.028540139959083 4.609028196574827
123 3.523770054149733 7.182133708409889 45.49083268604274
124 -1.389185421335436 -7.878462024097666 4.151493815333537
125 -1.389185421335436 -7.878462024097666 45.9977962798062
126 -8 -2.744199199108613e-14 3.817724827177845
127 -2.560343306373398 7.579224376775564 9.313717623932932
128 -8 -2.744199199108613e-14 46.26459260059116
129 -1.389185421335455 7.878462024097662 46.2763493293364
130 6.969321559027589 3.927920188455114 4.085816774933842
131 6.797530364868011 -4.218243821627357 45.85214922438558
132 6.903262722117335 -4.042890524046521 4.102992226519681
133 7.015160785788166 3.845454348908586 45.9671704097303
134 1.109535362408389 -7.922684600535685 7.293437023661647
135 1.437794303079561 -7.86973617995114 42.82501007869386
136 8.840480119603916 4.673960981318515 24.99966236260399
137 8.842592592606351 -4.669963194842468 25.00000000000003
138 -10 3.675178358715236e-14 45.13709056668099
139 -10 3.675178358715236e-14 4.862909433319016
140 8.842592592593839 4.669963194866163 13.8888888888889
141 8.842592592556176 -4.669963194937475 13.8888888888889
142 8.842592592593839 4.669963194866163 36.11111111111114
143 8.842592592556176 -4.669963194937475 36.11111111111114
144 -4.154150130018863 9.096319953545184 4.862909433321494
145 -4.154150130018863 9.096319953545184 45.1370905666785
146 -4.236528733569066 -9.058246203854457 4.884240871174335
147 -4.201305570193436 -9.074636714814627 45.17920960724675
148 6.166982805778125 7.871996130158917 4.684706499036991
149 6.170716669709993 7.869069562671511 45.27560908510367
150 5.967967129035384 -8.023924747076904 4.729647099603962
151 5.967169799953677 -8.024517716256897 45.27155593425969
152 8.839482714463871 4.675847018529844 19.44278588607526
153 5.62241485569573 8.269731022859933 22.22123241875187
154 5.628161139692581 8.2658213255341 27.7984035015193
155 1.086667342655674 9.940782367922841 25.01517640375705
156 1.082032164853156 9.94128796455586 19.42516891672918
157 -3.718064874526105 9.283102584201856 22.22535822677719
158 -3.712484329516652 9.285335756077606 27.82355219649362
159 -3.720880401277145 9.281974414928735 16.62335663996576
160 -7.654109937466846 6.435417707124476 19.42771693517922
161 -7.655912046172714 6.433273718820576 13.82031832156642
162 -9.784317051499965 2.065705650795154 16.62310729907799
163 -9.783691033129667 2.068668597977487 22.23278196531796
164 -9.603186817337789 -2.789050546567719 19.43132748088341
165 -9.604349609033573 -2.785043731695546 25.04260362293418
166 -7.154599707436594 -6.986537270089396 22.2412165107489
167 -7.158542960157143 -6.982496880599705 27.8507462727757
168 -9.605437764176049 -2.781288434977689 30.65550471197106
169 -7.15362224559454 -6.987538104893234 16.63200811819155
170 -3.018937142241235 -9.533415889973348 19.43674232693809
171 -7.100150157918813 -7.041865359051211 33.59122278766343
172 -3.022290394758762 -9.532353369957963 30.65904620374913
173 1.088682064975486 9.940561923825067 13.82315495687977
174 -2.96286091450599 -9.550992367356008 13.92581554690588
175 -3.024010086453079 -9.531807960561839 36.26931422696295
176 -9.606778612486238 -2.776653505692955 36.27164925208272
177 -9.780480624542934 2.083794316371039 33.45945557063497
178 1.560385363988428 -9.877509681891013 16.71198310828435
179 1.535472546774866 -9.881413059785565 22.1803276165323
180 1.56285460594487 -9.877119290596672 33.40002546995433
181 1.64358483764957 -9.864006735675337 11.09720800092386
182 1.672485547454641 -9.859147635244913 39.01708093101087
183 -6.767063310948891 -7.362530417296043 10.42857683535252
184 6.230498767589633 -7.821821086362438 19.43933840758866
185 -9.851517160440732 1.71686040129702 39.1232451295402
186 -7.707483753015891 6.371396565667222 36.28491752079814
187 -9.864694324453822 1.6394529224984 10.9595211822044
188 1.509358534256358 -9.885435590557833 27.91239260467214
189 6.232489957544683 -7.820234582741408 30.66445323475683
190 -3.015179637923518 -9.534604960408764 25.03456427975844
191 -9.544391942895775 -2.984054697954818 13.83995280216353
192 -9.782698443032865 2.073357463796905 27.83741610333796
193 -7.656738648705073 6.432289892831792 30.65194681405297
194 -3.752846738011642 9.269096037963754 33.46110195932942
195 -3.781914102712362 9.25727420571009 39.09174151364725
196 1.066268249979481 9.942991100221587 36.25814117513018
197 1.139101443796185 9.934910563298567 41.86773518095578
198 1.080472540989172 9.941457593741896 30.61822053055452
199 5.627997756220361 8.265932570253558 33.39376377731433
200 -7.653763565306476 6.435829650199506 25.04757895104477
201 5.620150122491907 8.271270313600819 16.58727860090274
202 8.841237768629179 4.672527658405559 30.55413736586361
203 5.741153032988131 8.187744613250414 39.08231660864567
204 -8.339820989249688 5.517914992754996 8.149659676907893
205 -3.723371187904915 9.280975541239162 11.02261865084229
206 1.094520465072582 9.939920771894377 7.652227087429129
207 5.545631841177068 8.321416194502174 10.52361892545105
208 -8.376896997024337 5.461464702920331 41.85679213742016
209 1.104713834088338 -9.938793052718918 5.099299245087633
210 1.120930607103199 -9.936977134624959 44.93480903936945
211 -8.412535328311847 -5.40640817455592 45.13709056668099
212 -6.811647713649843 -7.32130148437618 40.30704141320261
213 -8.409682887144122 -5.410844087355993 4.860101209429588
214 8.845607693669201 4.664249621289607 8.570908391137463
215 8.903145159628947 4.553460910843054 41.44557433413554
216 8.903145159628574 -4.553460910843784 8.55442566586686
217 8.903145159628581 -4.553460910843768 41.44557433413316
218 -9.593624545854309 -2.821766835367812 8.862292973402019
219 -9.594929736144987 -2.817325568414248 41.18500108171902
220 5.589164812187462 -8.292239546841703 25.04837363867506
221 9.175309832390633 -3.97664299122209 19.44444444444446
222 9.175608658913573 -3.975953437663758 30.55555555555559
223 5.593006119121686 -8.289649121130964 36.26970275143186
224 5.593662284817533 -8.289206369937347 13.83632488998738
225 -8.412535328311805 5.406408174555986 46.25904575686252
226 -2.724210062864265 -9.621781515571277 9.338548237320538
227 -8.412535328311805 5.406408174555986 3.692854002332584
228 -2.881635133933081 -9.575812182519167 40.80550688127532
229 5.70325670086854 -8.214186691571971 9.29014754639074
230 1.423148382732858 9.898214418809326 46.45338325349078
231 5.950561940815281 -8.036840958269654 40.75403719635128
232 9.144174253020887 4.047724945001806 45.85412480571123
233 9.144174253020891 4.047724945001799 4.145875194288776
234 9.144174253020687 -4.047724945002261 45.85412480571097
235 9.144174253020696 -4.047724945002244 4.145875194289049
236 1.430047377594503 9.897220038871273 3.277986300043397
$EndNodes
$Elements
1188
1 15 2 0 3 1
2 15 2 0 4 2
3 15 2 0 5 3
4 15 2 0 6 4
5 1 2 0 4 1 5
6 1 2 0 4 5 6
7 1 2 0 4 6 7
8 1 2 0 4 7 8
9 1 2 0 4 8 9
10 1 2 0 4 9 10
11 1 2 0 4 10 11
12 1 2 0 4 11 12
13 1 2 0 4 12 1
14 1 2 0 5 2 13
15 1 2 0 5 13 14
16 1 2 0 5 14 15
17 1 2 0 5 15 16
18 1 2 0 5 16 17
19 1 2 0 5 17 18
20 1 2 0 5 18 19
21 1 2 0 5 19 20
22 1 2 0 5 20 1
23 1 2 0 6 2 21
24 1 2 0 6 21 22
25 1 2 0 6 22 23
26 1 2 0 6 23 24
27 1 2 0 6 24 25
28 1 2 0 6 25 26
29 1 2 0 6 26 27
30 1 2 0 6 27 28
31 1 2 0 6 28 2
32 1 2 0 7 3 29
33 1 2 0 7 29 30
34 1 2 0 7 30 31
35 1 2 0 7 31 32
36 1 2 0 7 32 33
37 1 2 0 7 33 34
38 1 2 0 7 34 35
39 1 2 0 7 35 36
40 1 2 0 7 36 37
41 1 2 0 7 37 38
42 1 2 0 7 38 3
43 1 2 0 8 4 39
44 1 2 0 8 39 40
45 1 2 0 8 40 41
46 1 2 0 8 41 42
47 1 2 0 8 42 43
48 1 2 0 8 43 44
49 1 2 0 8 44 45
50 1 2 0 8 45 46
51 1 2 0 8 46 3
52 1 2 0 9 4 47
53 1 2 0 9 47 48
54 1 2 0 9 48 49
55 1 2 0 9 49 50
56 1 2 0 9 50 51
57 1 2 0 9 51 52
58 1 2 0 9 52 53
59 1 2 0 9 53 54
60 1 2 0 9 54 55
61 1 2 0 9 55 56
62 1 2 0 9 56 4
63 2 2 0 4 1 133 5
64 2 2 0 4 12 131 1
65 2 2 0 4 1 131 20
66 2 2 0 4 20 133 1
67 2 2 0 4 2 130 13
68 2 2 0 4 13 132 2
69 2 2 0 4 21 130 2
70 2 2 0 4 2 132 28
71 2 2 0 4 5 123 6
72 2 2 0 4 5 133 123
73 2 2 0 4 6 129 7
74 2 2 0 4 123 129 6
75 2 2 0 4 7 59 8
76 2 2 0 4 7 129 59
77 2 2 0 4 8 128 9
78 2 2 0 4 59 128 8
79 2 2 0 4 9 65 10
80 2 2 0 4 9 128 65
81 2 2 0 4 10 125 11
82 2 2 0 4 65 125 10
83 2 2 0 4 11 67 12
84 2 2 0 4 11 125 67
85 2 2 0 4 67 131 12
86 2 2 0 4 13 69 14
87 2 2 0 4 14 121 13
88 2 2 0 4 13 130 69
89 2 2 0 4 121 132 13
90 2 2 0 4 15 64 14
91 2 2 0 4 14 107 15
92 2 2 0 4 64 121 14
93 2 2 0 4 69 107 14
94 2 2 0 4 15 58 16
95 2 2 0 4 16 100 15
96 2 2 0 4 15 107 58
97 2 2 0 4 15 100 64
98 2 2 0 4 17 57 16
99 2 2 0 4 16 101 17
100 2 2 0 4 57 100 16
101 2 2 0 4 58 101 16
102 2 2 0 4 17 61 18
103 2 2 0 4 18 103 17
104 2 2 0 4 17 103 57
105 2 2 0 4 17 101 61
106 2 2 0 4 19 62 18
107 2 2 0 4 18 70 19
108 2 2 0 4 61 70 18
109 2 2 0 4 62 103 18
110 2 2 0 4 19 66 20
111 2 2 0 4 20 120 19
112 2 2 0 4 19 120 62
113 2 2 0 4 19 70 66
114 2 2 0 4 66 133 20
115 2 2 0 4 20 131 120
116 2 2 0 4 22 122 21
117 2 2 0 4 122 130 21
118 2 2 0 4 23 63 22
119 2 2 0 4 63 122 22
120 2 2 0 4 24 119 23
121 2 2 0 4 23 119 63
122 2 2 0 4 25 126 24
123 2 2 0 4 24 126 119
124 2 2 0 4 26 60 25
125 2 2 0 4 60 126 25
126 2 2 0 4 27 124 26
127 2 2 0 4 26 124 60
128 2 2 0 4 28 68 27
129 2 2 0 4 68 124 27
130 2 2 0 4 28 132 68
131 2 2 0 4 57 103 99
132 2 2 0 4 99 112 57
133 2 2 0 4 57 112 100
134 2 2 0 4 58 102 101
135 2 2 0 4 58 115 102
136 2 2 0 4 107 115 58
137 2 2 0 4 59 95 77
138 2 2 0 4 77 98 59
139 2 2 0 4 59 129 95
140 2 2 0 4 98 128 59
141 2 2 0 4 60 111 94
142 2 2 0 4 94 126 60
143 2 2 0 4 60 117 111
144 2 2 0 4 60 124 117
145 2 2 0 4 61 71 70
146 2 2 0 4 61 72 71
147 2 2 0 4 61 101 72
148 2 2 0 4 62 104 103
149 2 2 0 4 62 105 104
150 2 2 0 4 62 120 105
151 2 2 0 4 116 122 63
152 2 2 0 4 63 127 116
153 2 2 0 4 119 127 63
154 2 2 0 4 96 97 64
155 2 2 0 4 64 100 96
156 2 2 0 4 97 121 64
157 2 2 0 4 98 114 65
158 2 2 0 4 65 128 98
159 2 2 0 4 114 118 65
160 2 2 0 4 118 125 65
161 2 2 0 4 70 106 66
162 2 2 0 4 106 123 66
163 2 2 0 4 123 133 66
164 2 2 0 4 120 131 67
165 2 2 0 4 67 135 120
166 2 2 0 4 125 135 67
167 2 2 0 4 68 132 121
168 2 2 0 4 121 134 68
169 2 2 0 4 68 134 124
170 2 2 0 4 69 116 107
171 2 2 0 4 69 122 116
172 2 2 0 4 69 130 122
173 2 2 0 4 71 106 70
174 2 2 0 4 72 73 71
175 2 2 0 4 73 75 71
176 2 2 0 4 75 106 71
177 2 2 0 4 72 74 73
178 2 2 0 4 72 102 74
179 2 2 0 4 101 102 72
180 2 2 0 4 74 109 73
181 2 2 0 4 73 76 75
182 2 2 0 4 73 109 76
183 2 2 0 4 102 113 74
184 2 2 0 4 74 110 109
185 2 2 0 4 74 113 110
186 2 2 0 4 76 77 75
187 2 2 0 4 77 95 75
188 2 2 0 4 95 106 75
189 2 2 0 4 76 78 77
190 2 2 0 4 76 79 78
191 2 2 0 4 76 109 79
192 2 2 0 4 78 98 77
193 2 2 0 4 79 80 78
194 2 2 0 4 80 114 78
195 2 2 0 4 78 114 98
196 2 2 0 4 79 81 80
197 2 2 0 4 79 108 81
198 2 2 0 4 79 109 108
199 2 2 0 4 81 82 80
200 2 2 0 4 82 83 80
201 2 2 0 4 83 114 80
202 2 2 0 4 81 84 82
203 2 2 0 4 81 85 84
204 2 2 0 4 81 108 85
205 2 2 0 4 82 104 83
206 2 2 0 4 84 99 82
207 2 2 0 4 99 104 82
208 2 2 0 4 104 105 83
209 2 2 0 4 105 118 83
210 2 2 0 4 83 118 114
211 2 2 0 4 85 86 84
212 2 2 0 4 86 112 84
213 2 2 0 4 84 112 99
214 2 2 0 4 85 87 86
215 2 2 0 4 85 89 87
216 2 2 0 4 85 108 89
217 2 2 0 4 87 88 86
218 2 2 0 4 88 96 86
219 2 2 0 4 96 112 86
220 2 2 0 4 87 111 88
221 2 2 0 4 89 90 87
222 2 2 0 4 90 111 87
223 2 2 0 4 88 97 96
224 2 2 0 4 88 117 97
225 2 2 0 4 111 117 88
226 2 2 0 4 89 91 90
227 2 2 0 4 89 110 91
228 2 2 0 4 108 110 89
229 2 2 0 4 91 92 90
230 2 2 0 4 92 94 90
231 2 2 0 4 94 111 90
232 2 2 0 4 91 93 92
233 2 2 0 4 91 113 93
234 2 2 0 4 110 113 91
235 2 2 0 4 93 127 92
236 2 2 0 4 92 119 94
237 2 2 0 4 92 127 119
238 2 2 0 4 113 115 93
239 2 2 0 4 115 116 93
240 2 2 0 4 116 127 93
241 2 2 0 4 119 126 94
242 2 2 0 4 95 123 106
243 2 2 0 4 95 129 123
244 2 2 0 4 100 112 96
245 2 2 0 4 117 134 97
246 2 2 0 4 97 134 121
247 2 2 0 4 103 104 99
248 2 2 0 4 102 115 113
249 2 2 0 4 105 135 118
250 2 2 0 4 120 135 105
251 2 2 0 4 107 116 115
252 2 2 0 4 109 110 108
253 2 2 0 4 124 134 117
254 2 2 0 4 118 135 125
255 2 2 0 5 3 232 29
256 2 2 0 5 38 234 3
257 2 2 0 5 46 232 3
258 2 2 0 5 3 234 46
259 2 2 0 5 4 233 39
260 2 2 0 5 39 235 4
261 2 2 0 5 47 233 4
262 2 2 0 5 4 235 56
263 2 2 0 5 29 149 30
264 2 2 0 5 29 232 149
265 2 2 0 5 30 230 31
266 2 2 0 5 149 230 30
267 2 2 0 5 31 145 32
268 2 2 0 5 31 230 145
269 2 2 0 5 32 225 33
270 2 2 0 5 145 225 32
271 2 2 0 5 33 138 34
272 2 2 0 5 33 225 138
273 2 2 0 5 34 211 35
274 2 2 0 5 138 211 34
275 2 2 0 5 35 147 36
276 2 2 0 5 35 211 147
277 2 2 0 5 36 210 37
278 2 2 0 5 147 210 36
279 2 2 0 5 37 151 38
280 2 2 0 5 37 210 151
281 2 2 0 5 151 234 38
282 2 2 0 5 39 214 40
283 2 2 0 5 40 216 39
284 2 2 0 5 39 233 214
285 2 2 0 5 216 235 39
286 2 2 0 5 40 140 41
287 2 2 0 5 41 141 40
288 2 2 0 5 40 214 140
289 2 2 0 5 141 216 40
290 2 2 0 5 41 152 42
291 2 2 0 5 42 221 41
292 2 2 0 5 140 152 41
293 2 2 0 5 41 221 141
294 2 2 0 5 42 136 43
295 2 2 0 5 43 137 42
296 2 2 0 5 42 152 136
297 2 2 0 5 137 221 42
298 2 2 0 5 43 202 44
299 2 2 0 5 44 222 43
300 2 2 0 5 136 202 43
301 2 2 0 5 43 222 137
302 2 2 0 5 44 142 45
303 2 2 0 5 45 143 44
304 2 2 0 5 44 202 142
305 2 2 0 5 143 222 44
306 2 2 0 5 45 215 46
307 2 2 0 5 46 217 45
308 2 2 0 5 142 215 45
309 2 2 0 5 45 217 143
310 2 2 0 5 215 232 46
311 2 2 0 5 46 234 217
312 2 2 0 5 48 148 47
313 2 2 0 5 148 233 47
314 2 2 0 5 49 236 48
315 2 2 0 5 48 236 148
316 2 2 0 5 50 144 49
317 2 2 0 5 144 236 49
318 2 2 0 5 51 227 50
319 2 2 0 5 50 227 144
320 2 2 0 5 52 139 51
321 2 2 0 5 139 227 51
322 2 2 0 5 53 213 52
323 2 2 0 5 52 213 139
324 2 2 0 5 54 146 53
325 2 2 0 5 146 213 53
326 2 2 0 5 55 209 54
327 2 2 0 5 54 209 146
328 2 2 0 5 56 150 55
329 2 2 0 5 150 209 55
330 2 2 0 5 56 235 150
331 2 2 0 5 152 153 136
332 2 2 0 5 153 154 136
333 2 2 0 5 154 202 136
334 2 2 0 5 137 220 184
335 2 2 0 5 184 221 137
336 2 2 0 5 189 220 137
337 2 2 0 5 137 222 189
338 2 2 0 5 138 208 185
339 2 2 0 5 185 219 138
340 2 2 0 5 138 225 208
341 2 2 0 5 138 219 211
342 2 2 0 5 187 204 139
343 2 2 0 5 139 218 187
344 2 2 0 5 204 227 139
345 2 2 0 5 213 218 139
346 2 2 0 5 140 201 152
347 2 2 0 5 140 207 201
348 2 2 0 5 140 214 207
349 2 2 0 5 141 221 184
350 2 2 0 5 184 224 141
351 2 2 0 5 141 229 216
352 2 2 0 5 224 229 141
353 2 2 0 5 142 202 199
354 2 2 0 5 199 203 142
355 2 2 0 5 203 215 142
356 2 2 0 5 189 222 143
357 2 2 0 5 143 223 189
358 2 2 0 5 217 231 143
359 2 2 0 5 143 231 223
360 2 2 0 5 204 205 144
361 2 2 0 5 144 227 204
362 2 2 0 5 205 206 144
363 2 2 0 5 206 236 144
364 2 2 0 5 145 197 195
365 2 2 0 5 195 208 145
366 2 2 0 5 145 230 197
367 2 2 0 5 208 225 145
368 2 2 0 5 183 213 146
369 2 2 0 5 146 226 183
370 2 2 0 5 209 226 146
371 2 2 0 5 147 228 210
372 2 2 0 5 211 212 147
373 2 2 0 5 212 228 147
374 2 2 0 5 206 207 148
375 2 2 0 5 148 236 206
376 2 2 0 5 207 214 148
377 2 2 0 5 214 233 148
378 2 2 0 5 149 203 197
379 2 2 0 5 197 230 149
380 2 2 0 5 149 215 203
381 2 2 0 5 149 232 215
382 2 2 0 5 150 229 209
383 2 2 0 5 216 229 150
384 2 2 0 5 150 235 216
385 2 2 0 5 210 231 151
386 2 2 0 5 151 231 217
387 2 2 0 5 217 234 151
388 2 2 0 5 152 201 153
389 2 2 0 5 153 155 154
390 2 2 0 5 153 156 155
391 2 2 0 5 153 201 156
392 2 2 0 5 155 198 154
393 2 2 0 5 198 199 154
394 2 2 0 5 199 202 154
395 2 2 0 5 156 157 155
396 2 2 0 5 157 158 155
397 2 2 0 5 158 198 155
398 2 2 0 5 156 159 157
399 2 2 0 5 156 173 159
400 2 2 0 5 156 201 173
401 2 2 0 5 157 200 158
402 2 2 0 5 159 160 157
403 2 2 0 5 160 200 157
404 2 2 0 5 193 194 158
405 2 2 0 5 158 200 193
406 2 2 0 5 194 198 158
407 2 2 0 5 159 161 160
408 2 2 0 5 159 205 161
409 2 2 0 5 173 205 159
410 2 2 0 5 161 162 160
411 2 2 0 5 162 163 160
412 2 2 0 5 163 200 160
413 2 2 0 5 161 187 162
414 2 2 0 5 161 204 187
415 2 2 0 5 161 205 204
416 2 2 0 5 162 164 163
417 2 2 0 5 162 191 164
418 2 2 0 5 187 191 162
419 2 2 0 5 164 165 163
420 2 2 0 5 165 192 163
421 2 2 0 5 192 200 163
422 2 2 0 5 164 166 165
423 2 2 0 5 164 169 166
424 2 2 0 5 164 191 169
425 2 2 0 5 166 167 165
426 2 2 0 5 167 168 165
427 2 2 0 5 168 192 165
428 2 2 0 5 166 190 167
429 2 2 0 5 169 170 166
430 2 2 0 5 170 190 166
431 2 2 0 5 167 171 168
432 2 2 0 5 167 172 171
433 2 2 0 5 167 190 172
434 2 2 0 5 171 176 168
435 2 2 0 5 176 177 168
436 2 2 0 5 177 192 168
437 2 2 0 5 169 174 170
438 2 2 0 5 169 183 174
439 2 2 0 5 169 191 183
440 2 2 0 5 174 178 170
441 2 2 0 5 178 179 170
442 2 2 0 5 179 190 170
443 2 2 0 5 172 175 171
444 2 2 0 5 175 212 171
445 2 2 0 5 171 212 176
446 2 2 0 5 172 180 175
447 2 2 0 5 172 188 180
448 2 2 0 5 172 190 188
449 2 2 0 5 201 207 173
450 2 2 0 5 173 206 205
451 2 2 0 5 173 207 206
452 2 2 0 5 174 181 178
453 2 2 0 5 174 226 181
454 2 2 0 5 183 226 174
455 2 2 0 5 180 182 175
456 2 2 0 5 182 228 175
457 2 2 0 5 175 228 212
458 2 2 0 5 176 185 177
459 2 2 0 5 176 219 185
460 2 2 0 5 212 219 176
461 2 2 0 5 185 186 177
462 2 2 0 5 186 193 177
463 2 2 0 5 177 193 192
464 2 2 0 5 178 184 179
465 2 2 0 5 181 224 178
466 2 2 0 5 178 224 184
467 2 2 0 5 184 220 179
468 2 2 0 5 188 190 179
469 2 2 0 5 179 220 188
470 2 2 0 5 180 223 182
471 2 2 0 5 188 189 180
472 2 2 0 5 189 223 180
473 2 2 0 5 181 226 209
474 2 2 0 5 209 229 181
475 2 2 0 5 181 229 224
476 2 2 0 5 210 228 182
477 2 2 0 5 182 231 210
478 2 2 0 5 223 231 182
479 2 2 0 5 191 218 183
480 2 2 0 5 183 218 213
481 2 2 0 5 185 208 186
482 2 2 0 5 186 194 193
483 2 2 0 5 186 195 194
484 2 2 0 5 186 208 195
485 2 2 0 5 187 218 191
486 2 2 0 5 188 220 189
487 2 2 0 5 193 200 192
488 2 2 0 5 195 196 194
489 2 2 0 5 196 198 194
490 2 2 0 5 195 197 196
491 2 2 0 5 197 203 196
492 2 2 0 5 196 199 198
493 2 2 0 5 196 203 199
494 2 2 0 5 211 219 212
495 2 2 0 6 29 1 3
496 2 2 0 6 3 1 38
497 2 2 0 6 5 1 29
498 2 2 0 6 38 1 12
499 2 2 0 6 5 30 6
500 2 2 0 6 29 30 5
501 2 2 0 6 31 7 6
502 2 2 0 6 6 30 31
503 2 2 0 6 32 8 7
504 2 2 0 6 32 7 31
505 2 2 0 6 34 9 8
506 2 2 0 6 33 8 32
507 2 2 0 6 34 8 33
508 2 2 0 6 10 9 35
509 2 2 0 6 35 9 34
510 2 2 0 6 10 36 11
511 2 2 0 6 35 36 10
512 2 2 0 6 11 37 12
513 2 2 0 6 36 37 11
514 2 2 0 6 37 38 12
515 2 2 0 7 47 4 2
516 2 2 0 7 4 56 2
517 2 2 0 7 21 47 2
518 2 2 0 7 56 28 2
519 2 2 0 7 48 21 22
520 2 2 0 7 48 47 21
521 2 2 0 7 49 22 23
522 2 2 0 7 49 48 22
523 2 2 0 7 50 23 24
524 2 2 0 7 50 49 23
525 2 2 0 7 52 24 25
526 2 2 0 7 51 50 24
527 2 2 0 7 52 51 24
528 2 2 0 7 53 25 26
529 2 2 0 7 53 52 25
530 2 2 0 7 27 54 26
531 2 2 0 7 54 53 26
532 2 2 0 7 27 28 55
533 2 2 0 7 54 27 55
534 2 2 0 7 28 56 55
535 4 2 0 1 158 194 73 198
536 4 2 0 1 166 85 164 165
537 4 2 0 1 158 74 157 155
538 4 2 0 1 113 159 157 156
539 4 2 0 1 192 163 108 165
540 4 2 0 1 198 155 154 72
541 4 2 0 1 89 162 164 163
542 4 2 0 1 155 102 156 153
543 4 2 0 1 177 192 79 168
544 4 2 0 1 95 195 145 197
545 4 2 0 1 212 219 114 176
546 4 2 0 1 199 196 198 71
547 4 2 0 1 168 167 165 81
548 4 2 0 1 173 207 116 206
549 4 2 0 1 75 194 195 196
550 4 2 0 1 204 92 205 161
551 4 2 0 1 186 208 77 195
552 4 2 0 1 183 191 111 218
553 4 2 0 1 182 135 210 231
554 4 2 0 1 164 87 169 191
555 4 2 0 1 205 159 93 173
556 4 2 0 1 171 212 114 176
557 4 2 0 1 90 187 191 162
558 4 2 0 1 158 193 200 109
559 4 2 0 1 157 160 110 200
560 4 2 0 1 63 144 206 236
561 4 2 0 1 173 156 115 201
562 4 2 0 1 194 193 76 186
563 4 2 0 1 205 127 144 206
564 4 2 0 1 163 110 160 200
565 4 2 0 1 147 125 36 210
566 4 2 0 1 171 168 176 80
567 4 2 0 1 54 124 146 209
568 4 2 0 1 129 145 31 230
569 4 2 0 1 200 193 192 109
570 4 2 0 1 55 27 54 209
571 4 2 0 1 160 91 161 159
572 4 2 0 1 106 197 203 196
573 4 2 0 1 144 227 119 204
574 4 2 0 1 35 10 36 147
575 4 2 0 1 36 11 37 210
576 4 2 0 1 161 91 160 162
577 4 2 0 1 136 101 154 153
578 4 2 0 1 61 154 199 202
579 4 2 0 1 76 193 177 186
580 4 2 0 1 177 78 185 176
581 4 2 0 1 73 74 158 72
582 4 2 0 1 66 215 203 149
583 4 2 0 1 54 26 53 146
584 4 2 0 1 84 167 166 190
585 4 2 0 1 145 32 7 31
586 4 2 0 1 155 158 74 72
587 4 2 0 1 153 152 58 201
588 4 2 0 1 183 169 174 88
589 4 2 0 1 198 73 158 72
590 4 2 0 1 74 155 72 102
591 4 2 0 1 155 74 113 102
592 4 2 0 1 158 155 198 72
593 4 2 0 1 144 127 205 204
594 4 2 0 1 114 65 98 219
595 4 2 0 1 74 113 157 155
596 4 2 0 1 79 108 192 109
597 4 2 0 1 158 74 73 109
598 4 2 0 1 113 155 102 156
599 4 2 0 1 164 85 89 163
600 4 2 0 1 209 134 181 229
601 4 2 0 1 166 169 86 170
602 4 2 0 1 163 164 85 165
603 4 2 0 1 113 157 110 74
604 4 2 0 1 73 198 71 72
605 4 2 0 1 155 113 157 156
606 4 2 0 1 208 77 59 98
607 4 2 0 1 164 85 87 89
608 4 2 0 1 85 89 163 108
609 4 2 0 1 163 89 110 108
610 4 2 0 1 108 163 85 165
611 4 2 0 1 70 199 203 142
612 4 2 0 1 218 111 60 94
613 4 2 0 1 113 93 159 156
614 4 2 0 1 93 159 91 113
615 4 2 0 1 225 59 208 145
616 4 2 0 1 140 107 201 207
617 4 2 0 1 73 75 194 76
618 4 2 0 1 173 115 93 116
619 4 2 0 1 198 75 73 71
620 4 2 0 1 194 75 73 198
621 4 2 0 1 185 98 138 219
622 4 2 0 1 230 31 6 30
623 4 2 0 1 162 164 87 89
624 4 2 0 1 101 72 154 102
625 4 2 0 1 165 85 108 81
626 4 2 0 1 162 90 91 89
627 4 2 0 1 102 101 58 153
628 4 2 0 1 231 135 210 151
629 4 2 0 1 198 196 75 71
630 4 2 0 1 75 194 196 198
631 4 2 0 1 187 94 139 204
632 4 2 0 1 61 72 154 101
633 4 2 0 1 154 71 72 61
634 4 2 0 1 79 177 78 76
635 4 2 0 1 190 170 86 112
636 4 2 0 1 102 154 101 153
637 4 2 0 1 106 95 123 197
638 4 2 0 1 144 49 23 50
639 4 2 0 1 192 108 163 200
640 4 2 0 1 79 192 177 193
641 4 2 0 1 115 113 102 156
642 4 2 0 1 48 49 22 236
643 4 2 0 1 18 61 70 202
644 4 2 0 1 142 18 70 202
645 4 2 0 1 91 110 160 89
646 4 2 0 1 159 157 160 113
647 4 2 0 1 116 207 107 69
648 4 2 0 1 200 108 110 109
649 4 2 0 1 69 148 207 214
650 4 2 0 1 157 74 158 200
651 4 2 0 1 73 194 158 193
652 4 2 0 1 156 93 159 173
653 4 2 0 1 61 199 71 70
654 4 2 0 1 160 110 91 113
655 4 2 0 1 196 106 75 71
656 4 2 0 1 45 44 18 142
657 4 2 0 1 108 192 165 81
658 4 2 0 1 208 185 98 138
659 4 2 0 1 71 154 199 61
660 4 2 0 1 162 87 90 89
661 4 2 0 1 72 155 154 102
662 4 2 0 1 109 193 79 76
663 4 2 0 1 160 162 89 163
664 4 2 0 1 110 74 200 109
665 4 2 0 1 168 165 192 81
666 4 2 0 1 84 81 167 82
667 4 2 0 1 9 34 211 35
668 4 2 0 1 102 155 154 153
669 4 2 0 1 192 108 79 81
670 4 2 0 1 93 113 115 156
671 4 2 0 1 148 47 21 48
672 4 2 0 1 151 12 37 38
673 4 2 0 1 166 86 87 85
674 4 2 0 1 230 129 145 197
675 4 2 0 1 105 83 104 180
676 4 2 0 1 28 55 56 150
677 4 2 0 1 168 192 79 81
678 4 2 0 1 202 101 154 136
679 4 2 0 1 109 73 193 76
680 4 2 0 1 85 166 167 165
681 4 2 0 1 71 198 154 72
682 4 2 0 1 58 136 152 153
683 4 2 0 1 190 86 84 112
684 4 2 0 1 101 136 58 153
685 4 2 0 1 134 226 209 181
686 4 2 0 1 154 61 101 202
687 4 2 0 1 170 190 179 112
688 4 2 0 1 83 105 182 180
689 4 2 0 1 206 116 63 122
690 4 2 0 1 94 139 218 187
691 4 2 0 1 142 70 199 202
692 4 2 0 1 127 144 119 204
693 4 2 0 1 70 61 199 202
694 4 2 0 1 168 79 177 80
695 4 2 0 1 198 154 199 71
696 4 2 0 1 219 65 128 211
697 4 2 0 1 167 166 85 84
698 4 2 0 1 19 20 120 217
699 4 2 0 1 170 86 166 190
700 4 2 0 1 29 5 30 149
701 4 2 0 1 80 168 79 81
702 4 2 0 1 81 80 167 82
703 4 2 0 1 197 230 123 149
704 4 2 0 1 169 183 191 111
705 4 2 0 1 84 82 190 99
706 4 2 0 1 166 86 85 84
707 4 2 0 1 227 126 24 119
708 4 2 0 1 195 145 208 95
709 4 2 0 1 111 191 87 90
710 4 2 0 1 41 152 15 42
711 4 2 0 1 148 206 236 122
712 4 2 0 1 170 174 88 96
713 4 2 0 1 142 44 18 202
714 4 2 0 1 172 180 188 99
715 4 2 0 1 85 87 166 164
716 4 2 0 1 104 180 189 223
717 4 2 0 1 179 190 188 112
718 4 2 0 1 136 16 101 58
719 4 2 0 1 136 152 16 58
720 4 2 0 1 101 61 17 202
721 4 2 0 1 221 16 15 100
722 4 2 0 1 17 101 202 136
723 4 2 0 1 138 128 33 34
724 4 2 0 1 90 161 187 162
725 4 2 0 1 135 210 228 182
726 4 2 0 1 99 190 84 112
727 4 2 0 1 67 12 11 37
728 4 2 0 1 27 28 68 55
729 4 2 0 1 78 177 79 80
730 4 2 0 1 175 83 182 180
731 4 2 0 1 174 170 178 96
732 4 2 0 1 88 86 170 96
733 4 2 0 1 177 78 186 185
734 4 2 0 1 25 53 213 52
735 4 2 0 1 180 172 82 99
736 4 2 0 1 23 63 144 119
737 4 2 0 1 136 43 16 42
738 4 2 0 1 17 44 43 202
739 4 2 0 1 207 107 115 116
740 4 2 0 1 96 86 170 112
741 4 2 0 1 189 103 222 137
742 4 2 0 1 219 128 138 211
743 4 2 0 1 99 188 190 112
744 4 2 0 1 145 59 208 95
745 4 2 0 1 81 167 85 84
746 4 2 0 1 115 102 58 153
747 4 2 0 1 195 208 77 95
748 4 2 0 1 18 19 45 142
749 4 2 0 1 201 107 115 207
750 4 2 0 1 39 214 14 40
751 4 2 0 1 97 88 174 96
752 4 2 0 1 156 115 93 173
753 4 2 0 1 141 221 100 184
754 4 2 0 1 169 166 87 164
755 4 2 0 1 66 215 19 70
756 4 2 0 1 175 171 212 83
757 4 2 0 1 35 211 65 147
758 4 2 0 1 14 13 216 121
759 4 2 0 1 59 77 208 95
760 4 2 0 1 62 105 104 223
761 4 2 0 1 46 45 20 215
762 4 2 0 1 83 118 228 182
763 4 2 0 1 178 97 174 96
764 4 2 0 1 181 97 174 178
765 4 2 0 1 115 173 201 207
766 4 2 0 1 100 221 137 184
767 4 2 0 1 40 140 14 41
768 4 2 0 1 64 224 141 184
769 4 2 0 1 118 83 105 182
770 4 2 0 1 165 167 85 81
771 4 2 0 1 92 161 91 93
772 4 2 0 1 70 215 19 142
773 4 2 0 1 96 170 178 179
774 4 2 0 1 169 166 86 87
775 4 2 0 1 82 104 180 99
776 4 2 0 1 62 19 120 217
777 4 2 0 1 106 123 66 203
778 4 2 0 1 179 96 170 112
779 4 2 0 1 203 123 66 149
780 4 2 0 1 195 77 75 95
781 4 2 0 1 20 217 45 46
782 4 2 0 1 117 88 174 97
783 4 2 0 1 128 98 65 219
784 4 2 0 1 139 126 52 51
785 4 2 0 1 189 143 62 223
786 4 2 0 1 17 18 44 202
787 4 2 0 1 202 43 17 136
788 4 2 0 1 148 207 206 122
789 4 2 0 1 225 59 128 138
790 4 2 0 1 204 187 92 161
791 4 2 0 1 84 166 86 190
792 4 2 0 1 104 83 82 180
793 4 2 0 1 91 161 92 90
794 4 2 0 1 16 152 136 42
795 4 2 0 1 70 19 18 142
796 4 2 0 1 57 16 17 137
797 4 2 0 1 102 115 156 153
798 4 2 0 1 83 172 82 180
799 4 2 0 1 82 171 167 172
800 4 2 0 1 203 197 123 149
801 4 2 0 1 83 175 172 180
802 4 2 0 1 57 189 220 137
803 4 2 0 1 115 173 207 116
804 4 2 0 1 187 191 218 90
805 4 2 0 1 48 22 21 122
806 4 2 0 1 60 183 117 111
807 4 2 0 1 34 128 9 211
808 4 2 0 1 80 171 167 82
809 4 2 0 1 39 14 216 40
810 4 2 0 1 116 63 127 206
811 4 2 0 1 176 168 177 80
812 4 2 0 1 221 15 141 100
813 4 2 0 1 71 199 106 70
814 4 2 0 1 138 128 34 211
815 4 2 0 1 186 78 76 77
816 4 2 0 1 141 15 14 64
817 4 2 0 1 137 220 57 184
818 4 2 0 1 60 213 218 126
819 4 2 0 1 185 78 77 98
820 4 2 0 1 140 152 15 41
821 4 2 0 1 222 143 103 189
822 4 2 0 1 126 218 60 94
823 4 2 0 1 212 114 65 118
824 4 2 0 1 214 14 13 39
825 4 2 0 1 183 213 60 146
826 4 2 0 1 107 15 152 58
827 4 2 0 1 191 111 218 90
828 4 2 0 1 58 115 153 201
829 4 2 0 1 82 80 171 83
830 4 2 0 1 153 115 156 201
831 4 2 0 1 114 98 78 219
832 4 2 0 1 186 76 75 77
833 4 2 0 1 44 18 143 45
834 4 2 0 1 159 161 205 93
835 4 2 0 1 176 78 114 80
836 4 2 0 1 86 88 169 87
837 4 2 0 1 18 17 61 202
838 4 2 0 1 80 167 168 81
839 4 2 0 1 96 100 112 184
840 4 2 0 1 144 63 49 236
841 4 2 0 1 16 15 152 42
842 4 2 0 1 92 205 127 204
843 4 2 0 1 221 137 16 100
844 4 2 0 1 111 213 183 218
845 4 2 0 1 1 3 234 46
846 4 2 0 1 1 3 46 232
847 4 2 0 1 75 194 186 195
848 4 2 0 1 209 55 68 150
849 4 2 0 1 19 20 45 215
850 4 2 0 1 92 187 94 90
851 4 2 0 1 143 103 18 222
852 4 2 0 1 98 185 78 219
853 4 2 0 1 207 116 122 69
854 4 2 0 1 123 106 197 203
855 4 2 0 1 196 199 106 71
856 4 2 0 1 219 78 114 176
857 4 2 0 1 103 104 99 189
858 4 2 0 1 177 78 176 80
859 4 2 0 1 215 45 19 142
860 4 2 0 1 199 106 203 196
861 4 2 0 1 88 169 174 170
862 4 2 0 1 106 75 95 196
863 4 2 0 1 103 17 18 222
864 4 2 0 1 203 215 70 142
865 4 2 0 1 74 157 110 200
866 4 2 0 1 63 22 23 49
867 4 2 0 1 43 16 17 136
868 4 2 0 1 168 171 167 80
869 4 2 0 1 193 158 73 109
870 4 2 0 1 140 15 14 41
871 4 2 0 1 65 10 9 35
872 4 2 0 1 14 216 141 121
873 4 2 0 1 227 50 144 119
874 4 2 0 1 160 91 159 113
875 4 2 0 1 217 19 20 45
876 4 2 0 1 215 19 20 66
877 4 2 0 1 4 13 235 39
878 4 2 0 1 233 13 4 39
879 4 2 0 1 74 158 200 109
880 4 2 0 1 8 7 59 32
881 4 2 0 1 15 141 100 64
882 4 2 0 1 58 152 107 201
883 4 2 0 1 62 103 18 143
884 4 2 0 1 218 94 187 90
885 4 2 0 1 110 160 157 113
886 4 2 0 1 140 15 152 107
887 4 2 0 1 219 185 78 176
888 4 2 0 1 54 27 26 124
889 4 2 0 1 179 188 220 112
890 4 2 0 1 193 73 194 76
891 4 2 0 1 137 57 16 100
892 4 2 0 1 134 209 68 150
893 4 2 0 1 116 205 173 206
894 4 2 0 1 110 160 89 163
895 4 2 0 1 215 66 203 70
896 4 2 0 1 128 59 98 138
897 4 2 0 1 108 110 163 200
898 4 2 0 1 59 225 98 138
899 4 2 0 1 200 192 108 109
900 4 2 0 1 21 2 47 130
901 4 2 0 1 67 37 210 151
902 4 2 0 1 152 15 16 58
903 4 2 0 1 53 26 25 60
904 4 2 0 1 62 18 19 143
905 4 2 0 1 14 39 216 13
906 4 2 0 1 208 59 225 98
907 4 2 0 1 64 14 141 121
908 4 2 0 1 14 40 41 141
909 4 2 0 1 178 96 179 184
910 4 2 0 1 123 6 5 30
911 4 2 0 1 188 99 189 220
912 4 2 0 1 47 2 4 233
913 4 2 0 1 234 20 1 46
914 4 2 0 1 46 20 1 232
915 4 2 0 1 126 213 218 139
916 4 2 0 1 193 79 192 109
917 4 2 0 1 38 12 1 131
918 4 2 0 1 13 4 235 2
919 4 2 0 1 2 13 4 233
920 4 2 0 1 132 28 2 56
921 4 2 0 1 175 83 228 182
922 4 2 0 1 221 41 15 42
923 4 2 0 1 211 65 9 35
924 4 2 0 1 162 91 160 89
925 4 2 0 1 209 134 229 150
926 4 2 0 1 68 124 27 209
927 4 2 0 1 213 25 52 126
928 4 2 0 1 125 65 118 147
929 4 2 0 1 214 140 14 40
930 4 2 0 1 94 218 111 90
931 4 2 0 1 69 14 13 214
932 4 2 0 1 128 9 8 34
933 4 2 0 1 216 229 121 150
934 4 2 0 1 101 17 16 136
935 4 2 0 1 226 146 183 117
936 4 2 0 1 2 47 130 233
937 4 2 0 1 53 60 213 146
938 4 2 0 1 98 225 208 138
939 4 2 0 1 60 213 111 218
940 4 2 0 1 75 195 95 196
941 4 2 0 1 177 79 193 76
942 4 2 0 1 119 227 139 204
943 4 2 0 1 95 145 59 129
944 4 2 0 1 112 220 179 184
945 4 2 0 1 128 33 225 138
946 4 2 0 1 18 19 143 45
947 4 2 0 1 96 224 64 184
948 4 2 0 1 199 203 106 70
949 4 2 0 1 64 141 224 229
950 4 2 0 1 115 58 107 201
951 4 2 0 1 235 2 4 56
952 4 2 0 1 139 126 227 119
953 4 2 0 1 126 52 213 139
954 4 2 0 1 211 219 65 212
955 4 2 0 1 29 3 1 232
956 4 2 0 1 152 140 107 201
957 4 2 0 1 229 134 68 150
958 4 2 0 1 98 128 138 219
959 4 2 0 1 189 62 104 223
960 4 2 0 1 17 44 222 43
961 4 2 0 1 75 194 76 186
962 4 2 0 1 151 38 234 131
963 4 2 0 1 224 96 178 184
964 4 2 0 1 137 16 43 42
965 4 2 0 1 64 100 96 184
966 4 2 0 1 99 57 220 112
967 4 2 0 1 8 33 128 34
968 4 2 0 1 188 99 220 112
969 4 2 0 1 97 96 224 64
970 4 2 0 1 62 104 103 189
971 4 2 0 1 235 132 2 56
972 4 2 0 1 1 29 232 133
973 4 2 0 1 23 144 50 119
974 4 2 0 1 19 62 143 217
975 4 2 0 1 235 132 56 150
976 4 2 0 1 141 100 64 184
977 4 2 0 1 112 179 96 184
978 4 2 0 1 36 10 11 125
979 4 2 0 1 69 107 14 214
980 4 2 0 1 234 38 1 131
981 4 2 0 1 1 3 38 234
982 4 2 0 1 29 1 5 133
983 4 2 0 1 140 107 207 214
984 4 2 0 1 125 10 65 147
985 4 2 0 1 212 65 211 147
986 4 2 0 1 132 2 13 235
987 4 2 0 1 13 2 130 233
988 4 2 0 1 114 212 171 83
989 4 2 0 1 92 119 94 204
990 4 2 0 1 65 9 128 211
991 4 2 0 1 66 106 203 70
992 4 2 0 1 116 127 205 206
993 4 2 0 1 159 91 161 93
994 4 2 0 1 206 207 116 122
995 4 2 0 1 55 68 27 209
996 4 2 0 1 189 57 103 137
997 4 2 0 1 223 143 62 231
998 4 2 0 1 146 60 183 117
999 4 2 0 1 57 17 103 137
1000 4 2 0 1 143 62 103 189
1001 4 2 0 1 107 140 14 214
1002 4 2 0 1 141 216 229 121
1003 4 2 0 1 77 208 186 185
1004 4 2 0 1 114 171 80 83
1005 4 2 0 1 234 1 20 131
1006 4 2 0 1 222 103 17 137
1007 4 2 0 1 51 139 126 227
1008 4 2 0 1 175 172 171 83
1009 4 2 0 1 67 11 125 210
1010 4 2 0 1 95 145 129 197
1011 4 2 0 1 169 88 86 170
1012 4 2 0 1 197 95 195 196
1013 4 2 0 1 20 1 232 133
1014 4 2 0 1 100 137 57 184
1015 4 2 0 1 105 182 180 223
1016 4 2 0 1 6 7 31 129
1017 4 2 0 1 59 225 32 145
1018 4 2 0 1 146 124 60 117
1019 4 2 0 1 44 17 222 18
1020 4 2 0 1 122 148 207 69
1021 4 2 0 1 44 143 18 222
1022 4 2 0 1 112 100 57 184
1023 4 2 0 1 197 106 95 196
1024 4 2 0 1 112 57 220 184
1025 4 2 0 1 151 234 217 131
1026 4 2 0 1 41 15 14 141
1027 4 2 0 1 125 228 118 135
1028 4 2 0 1 132 235 216 150
1029 4 2 0 1 219 114 65 212
1030 4 2 0 1 11 67 37 210
1031 4 2 0 1 151 231 120 217
1032 4 2 0 1 24 52 25 126
1033 4 2 0 1 180 104 105 223
1034 4 2 0 1 236 63 22 122
1035 4 2 0 1 225 8 59 32
1036 4 2 0 1 60 213 183 111
1037 4 2 0 1 69 207 107 214
1038 4 2 0 1 37 67 12 151
1039 4 2 0 1 55 28 68 150
1040 4 2 0 1 144 127 63 206
1041 4 2 0 1 91 161 90 162
1042 4 2 0 1 25 53 60 213
1043 4 2 0 1 57 103 99 189
1044 4 2 0 1 172 82 171 83
1045 4 2 0 1 35 65 10 147
1046 4 2 0 1 63 127 144 119
1047 4 2 0 1 24 52 126 51
1048 4 2 0 1 87 88 169 111
1049 4 2 0 1 187 92 161 90
1050 4 2 0 1 225 59 8 128
1051 4 2 0 1 178 181 97 224
1052 4 2 0 1 229 64 141 121
1053 4 2 0 1 62 120 231 217
1054 4 2 0 1 123 95 129 197
1055 4 2 0 1 32 225 8 33
1056 4 2 0 1 189 99 57 220
1057 4 2 0 1 177 78 76 186
1058 4 2 0 1 125 36 10 147
1059 4 2 0 1 15 16 221 42
1060 4 2 0 1 231 143 62 217
1061 4 2 0 1 226 146 124 209
1062 4 2 0 1 67 210 135 151
1063 4 2 0 1 147 228 125 210
1064 4 2 0 1 140 14 15 107
1065 4 2 0 1 141 41 15 221
1066 4 2 0 1 126 139 94 119
1067 4 2 0 1 127 119 92 204
1068 4 2 0 1 56 132 28 150
1069 4 2 0 1 31 7 145 129
1070 4 2 0 1 43 17 16 137
1071 4 2 0 1 217 143 19 45
1072 4 2 0 1 124 60 26 146
1073 4 2 0 1 26 54 124 146
1074 4 2 0 1 117 183 88 111
1075 4 2 0 1 105 135 118 182
1076 4 2 0 1 7 59 145 129
1077 4 2 0 1 121 132 216 150
1078 4 2 0 1 216 13 132 121
1079 4 2 0 1 119 139 94 204
1080 4 2 0 1 217 20 120 131
1081 4 2 0 1 225 8 33 128
1082 4 2 0 1 213 60 25 126
1083 4 2 0 1 93 127 205 116
1084 4 2 0 1 38 151 12 131
1085 4 2 0 1 124 54 27 209
1086 4 2 0 1 40 14 216 141
1087 4 2 0 1 228 125 210 135
1088 4 2 0 1 17 43 222 137
1089 4 2 0 1 183 169 88 111
1090 4 2 0 1 47 148 130 233
1091 4 2 0 1 16 137 221 42
1092 4 2 0 1 7 59 32 145
1093 4 2 0 1 96 178 97 224
1094 4 2 0 1 114 212 83 118
1095 4 2 0 1 230 123 129 197
1096 4 2 0 1 218 126 139 94
1097 4 2 0 1 191 87 169 111
1098 4 2 0 1 217 120 151 131
1099 4 2 0 1 133 29 232 149
1100 4 2 0 1 21 148 48 122
1101 4 2 0 1 134 97 229 121
1102 4 2 0 1 50 51 24 227
1103 4 2 0 1 209 124 226 134
1104 4 2 0 1 161 92 205 93
1105 4 2 0 1 117 226 124 134
1106 4 2 0 1 30 123 230 149
1107 4 2 0 1 135 228 118 182
1108 4 2 0 1 231 67 135 151
1109 4 2 0 1 77 186 78 185
1110 4 2 0 1 66 20 215 133
1111 4 2 0 1 65 212 118 147
1112 4 2 0 1 21 47 148 130
1113 4 2 0 1 173 93 205 116
1114 4 2 0 1 60 53 26 146
1115 4 2 0 1 11 36 125 210
1116 4 2 0 1 92 127 205 93
1117 4 2 0 1 214 69 148 233
1118 4 2 0 1 233 214 13 39
1119 4 2 0 1 77 75 186 195
1120 4 2 0 1 68 28 132 150
1121 4 2 0 1 5 29 133 149
1122 4 2 0 1 97 64 229 121
1123 4 2 0 1 236 48 148 122
1124 4 2 0 1 69 130 148 233
1125 4 2 0 1 212 175 83 228
1126 4 2 0 1 228 118 212 147
1127 4 2 0 1 126 24 51 227
1128 4 2 0 1 118 228 125 147
1129 4 2 0 1 30 5 123 149
1130 4 2 0 1 118 212 83 228
1131 4 2 0 1 123 129 6 230
1132 4 2 0 1 229 68 134 121
1133 4 2 0 1 23 63 49 144
1134 4 2 0 1 151 67 12 131
1135 4 2 0 1 20 232 215 133
1136 4 2 0 1 232 46 20 215
1137 4 2 0 1 120 105 62 231
1138 4 2 0 1 235 13 132 216
1139 4 2 0 1 217 234 20 131
1140 4 2 0 1 217 20 234 46
1141 4 2 0 1 235 39 13 216
1142 4 2 0 1 105 182 223 231
1143 4 2 0 1 124 146 226 117
1144 4 2 0 1 49 63 22 236
1145 4 2 0 1 223 62 105 231
1146 4 2 0 1 114 171 176 80
1147 4 2 0 1 123 5 133 149
1148 4 2 0 1 122 21 148 130
1149 4 2 0 1 123 133 66 149
1150 4 2 0 1 125 67 210 135
1151 4 2 0 1 134 117 226 181
1152 4 2 0 1 64 224 97 229
1153 4 2 0 1 209 68 124 134
1154 4 2 0 1 236 22 48 122
1155 4 2 0 1 120 135 105 231
1156 4 2 0 1 117 134 97 181
1157 4 2 0 1 120 67 135 231
1158 4 2 0 1 77 208 185 98
1159 4 2 0 1 182 105 135 231
1160 4 2 0 1 94 187 92 204
1161 4 2 0 1 224 181 97 229
1162 4 2 0 1 148 122 130 69
1163 4 2 0 1 6 123 230 30
1164 4 2 0 1 121 68 132 150
1165 4 2 0 1 129 31 6 230
1166 4 2 0 1 236 206 63 122
1167 4 2 0 1 134 97 181 229
1168 4 2 0 1 121 229 68 150
1169 4 2 0 1 151 120 67 131
1170 4 2 0 1 231 120 67 151
1171 4 2 0 1 162 87 191 90
1172 4 2 0 1 162 191 87 164
1173 4 2 0 1 119 50 24 227
1174 4 2 0 1 119 24 50 23
1175 4 2 0 1 82 190 167 84
1176 4 2 0 1 167 190 82 172
1177 4 2 0 1 117 174 183 226
1178 4 2 0 1 117 183 174 88
1179 4 2 0 1 99 172 190 188
1180 4 2 0 1 99 190 172 82
1181 4 2 0 1 180 99 189 188
1182 4 2 0 1 189 99 180 104
1183 4 2 0 1 181 117 174 97
1184 4 2 0 1 181 174 117 226
1185 4 2 0 1 69 233 13 130
1186 4 2 0 1 13 233 69 214
1187 4 2 0 1 215 133 149 66
1188 4 2 0 1 149 133 215 232
$EndElements
