solid Created by Gmsh
facet normal 0.330968 -0.502012 0.799027
  outer loop
    vertex 6.123233995736766e-17 -1.499759782661858e-32 1
    vertex -0.05482578978498295 -0.8815871275804728 0.4688264809701603
    vertex 0.7071067811865477 -1.731912112470987e-16 0.7071067811865474
  endloop
endfacet
facet normal 0.382533 0.028002 0.923517
  outer loop
    vertex 0.7071067811865477 -1.731912112470987e-16 0.7071067811865474
    vertex 0.1582660382913854 0.34842283296345 0.9238795325112866
    vertex 6.123233995736766e-17 -1.499759782661858e-32 1
  endloop
endfacet
facet normal -0.710249 -0.330365 0.621615
  outer loop
    vertex 6.123233995736766e-17 -1.499759782661858e-32 1
    vertex -0.4792503668072031 0.5025950960448112 0.7195257155563436
    vertex -0.05482578978498295 -0.8815871275804728 0.4688264809701603
  endloop
endfacet
facet normal -0.223406 0.30382 0.926166
  outer loop
    vertex 0.1582660382913854 0.34842283296345 0.9238795325112866
    vertex -0.4792503668072031 0.5025950960448112 0.7195257155563436
    vertex 6.123233995736766e-17 -1.499759782661858e-32 1
  endloop
endfacet
facet normal 0.371579 0.239146 -0.897072
  outer loop
    vertex 6.123233995736766e-17 -1.499759782661858e-32 -1
    vertex 0.2928932188134519 0.6435942529055867 -0.707106781186544
    vertex 0.7071067811865474 -1.731912112470986e-16 -0.7071067811865477
  endloop
endfacet
facet normal 0.356777 -0.361677 -0.861336
  outer loop
    vertex 0.7071067811865474 -1.731912112470986e-16 -0.7071067811865477
    vertex 0.2780128900328362 -0.7833797030633427 -0.5559002372764191
    vertex 6.123233995736766e-17 -1.499759782661858e-32 -1
  endloop
endfacet
facet normal -0.0404887 0.42908 -0.902358
  outer loop
    vertex 6.123233995736766e-17 -1.499759782661858e-32 -1
    vertex -0.4506319168181624 0.4868025265774638 -0.7483008590550905
    vertex 0.2928932188134519 0.6435942529055867 -0.707106781186544
  endloop
endfacet
facet normal -0.556801 -0.088386 -0.82593
  outer loop
    vertex 6.123233995736766e-17 -1.499759782661858e-32 -1
    vertex -0.2800532214090475 -0.6034215938784265 -0.7466274661567402
    vertex -0.4506319168181624 0.4868025265774638 -0.7483008590550905
  endloop
endfacet
facet normal 0.158321 -0.44383 -0.882015
  outer loop
    vertex 6.123233995736766e-17 -1.499759782661858e-32 -1
    vertex 0.2780128900328362 -0.7833797030633427 -0.5559002372764191
    vertex -0.2800532214090475 -0.6034215938784265 -0.7466274661567402
  endloop
endfacet
facet normal 0.900571 -0.223208 -0.373029
  outer loop
    vertex 1 -2.449293598294706e-16 -2.449293598294706e-16
    vertex 0.7622789804974174 -0.6132732514397389 -0.2069460677576379
    vertex 0.7071067811865474 -1.731912112470986e-16 -0.7071067811865477
  endloop
endfacet
facet normal 0.91004 0.172442 -0.376951
  outer loop
    vertex 0.7071067811865474 -1.731912112470986e-16 -0.7071067811865477
    vertex 0.7871987128638367 0.560426193165886 -0.2573726257376878
    vertex 1 -2.449293598294706e-16 -2.449293598294706e-16
  endloop
endfacet
facet normal 0.619572 -0.461872 -0.634669
  outer loop
    vertex 0.7622789804974174 -0.6132732514397389 -0.2069460677576379
    vertex 0.2780128900328362 -0.7833797030633427 -0.5559002372764191
    vertex 0.7071067811865474 -1.731912112470986e-16 -0.7071067811865477
  endloop
endfacet
facet normal 0.648915 0.417638 -0.635994
  outer loop
    vertex 0.2928932188134519 0.6435942529055867 -0.707106781186544
    vertex 0.7871987128638367 0.560426193165886 -0.2573726257376878
    vertex 0.7071067811865474 -1.731912112470986e-16 -0.7071067811865477
  endloop
endfacet
facet normal 0.902309 -0.214825 0.373749
  outer loop
    vertex 0.7071067811865477 -1.731912112470987e-16 0.7071067811865474
    vertex 0.7507638974917921 -0.6112934807459561 0.250347459784251
    vertex 1 -2.449293598294706e-16 -2.449293598294706e-16
  endloop
endfacet
facet normal 0.897072 0.239146 0.371579
  outer loop
    vertex 1 -2.449293598294706e-16 -2.449293598294706e-16
    vertex 0.7071067811867193 0.6435942529053695 0.2928932188135061
    vertex 0.7071067811865477 -1.731912112470987e-16 0.7071067811865474
  endloop
endfacet
facet normal 0.929239 -0.368632 0.024995
  outer loop
    vertex 1 -2.449293598294706e-16 -2.449293598294706e-16
    vertex 0.7507638974917921 -0.6112934807459561 0.250347459784251
    vertex 0.7622789804974174 -0.6132732514397389 -0.2069460677576379
  endloop
endfacet
facet normal 0.920121 0.384218 0.0758536
  outer loop
    vertex 1 -2.449293598294706e-16 -2.449293598294706e-16
    vertex 0.7871987128638367 0.560426193165886 -0.2573726257376878
    vertex 0.7071067811867193 0.6435942529053695 0.2928932188135061
  endloop
endfacet
facet normal 0.383649 -0.535023 0.752705
  outer loop
    vertex -0.05482578978498295 -0.8815871275804728 0.4688264809701603
    vertex 0.7507638974917921 -0.6112934807459561 0.250347459784251
    vertex 0.7071067811865477 -1.731912112470987e-16 0.7071067811865474
  endloop
endfacet
facet normal 0.559868 0.448425 0.696752
  outer loop
    vertex 0.7071067811865477 -1.731912112470987e-16 0.7071067811865474
    vertex 0.7071067811867193 0.6435942529053695 0.2928932188135061
    vertex 0.1582660382913854 0.34842283296345 0.9238795325112866
  endloop
endfacet
facet normal 0.531001 -0.8472 0.0170389
  outer loop
    vertex 0.7507638974917921 -0.6112934807459561 0.250347459784251
    vertex 0.1629845600668811 -0.9856263008010108 -0.04446153786274768
    vertex 0.7622789804974174 -0.6132732514397389 -0.2069460677576379
  endloop
endfacet
facet normal 0.467087 -0.853145 -0.23232
  outer loop
    vertex 0.1629845600668811 -0.9856263008010108 -0.04446153786274768
    vertex 0.2780128900328362 -0.7833797030633427 -0.5559002372764191
    vertex 0.7622789804974174 -0.6132732514397389 -0.2069460677576379
  endloop
endfacet
facet normal 0.380244 -0.86169 0.336012
  outer loop
    vertex -0.05482578978498295 -0.8815871275804728 0.4688264809701603
    vertex 0.1629845600668811 -0.9856263008010108 -0.04446153786274768
    vertex 0.7507638974917921 -0.6112934807459561 0.250347459784251
  endloop
endfacet
facet normal -0.201002 -0.973172 0.11196
  outer loop
    vertex -0.05482578978498295 -0.8815871275804728 0.4688264809701603
    vertex -0.5652149697215434 -0.8217057661682278 0.07301829803933096
    vertex 0.1629845600668811 -0.9856263008010108 -0.04446153786274768
  endloop
endfacet
facet normal -0.565011 -0.505502 0.652097
  outer loop
    vertex -0.05482578978498295 -0.8815871275804728 0.4688264809701603
    vertex -0.9432995325147657 -0.07668376340758018 0.3229637632724057
    vertex -0.5652149697215434 -0.8217057661682278 0.07301829803933096
  endloop
endfacet
facet normal -0.397214 -0.280082 0.873942
  outer loop
    vertex -0.05482578978498295 -0.8815871275804728 0.4688264809701603
    vertex -0.4792503668072031 0.5025950960448112 0.7195257155563436
    vertex -0.9432995325147657 -0.07668376340758018 0.3229637632724057
  endloop
endfacet
facet normal -0.227264 -0.972453 -0.0518269
  outer loop
    vertex -0.5652149697215434 -0.8217057661682278 0.07301829803933096
    vertex -0.452521173586716 -0.8262759191923935 -0.3353993035449933
    vertex 0.1629845600668811 -0.9856263008010108 -0.04446153786274768
  endloop
endfacet
facet normal -0.0600839 -0.923555 -0.37873
  outer loop
    vertex -0.452521173586716 -0.8262759191923935 -0.3353993035449933
    vertex 0.2780128900328362 -0.7833797030633427 -0.5559002372764191
    vertex 0.1629845600668811 -0.9856263008010108 -0.04446153786274768
  endloop
endfacet
facet normal -0.720706 -0.666293 -0.191407
  outer loop
    vertex -0.5652149697215434 -0.8217057661682278 0.07301829803933096
    vertex -0.9123624854440516 -0.3863016035659474 -0.1355203535884195
    vertex -0.452521173586716 -0.8262759191923935 -0.3353993035449933
  endloop
endfacet
facet normal -0.811217 -0.508523 0.288671
  outer loop
    vertex -0.5652149697215434 -0.8217057661682278 0.07301829803933096
    vertex -0.9432995325147657 -0.07668376340758018 0.3229637632724057
    vertex -0.9123624854440516 -0.3863016035659474 -0.1355203535884195
  endloop
endfacet
facet normal -0.716905 -0.561616 -0.41308
  outer loop
    vertex -0.9123624854440516 -0.3863016035659474 -0.1355203535884195
    vertex -0.7959235961016503 -0.2196843536798422 -0.5641315572779875
    vertex -0.452521173586716 -0.8262759191923935 -0.3353993035449933
  endloop
endfacet
facet normal -0.612953 -0.557956 -0.55944
  outer loop
    vertex -0.7959235961016503 -0.2196843536798422 -0.5641315572779875
    vertex -0.2800532214090475 -0.6034215938784265 -0.7466274661567402
    vertex -0.452521173586716 -0.8262759191923935 -0.3353993035449933
  endloop
endfacet
facet normal -0.102746 -0.855859 -0.506901
  outer loop
    vertex -0.2800532214090475 -0.6034215938784265 -0.7466274661567402
    vertex 0.2780128900328362 -0.7833797030633427 -0.5559002372764191
    vertex -0.452521173586716 -0.8262759191923935 -0.3353993035449933
  endloop
endfacet
facet normal 0.322134 0.718576 0.616342
  outer loop
    vertex 0.7071067811867193 0.6435942529053695 0.2928932188135061
    vertex -0.02692365656305859 0.9454732234402432 0.3245851205381884
    vertex 0.1582660382913854 0.34842283296345 0.9238795325112866
  endloop
endfacet
facet normal -0.0600373 0.697817 0.713756
  outer loop
    vertex -0.02692365656305859 0.9454732234402432 0.3245851205381884
    vertex -0.4792503668072031 0.5025950960448112 0.7195257155563436
    vertex 0.1582660382913854 0.34842283296345 0.9238795325112866
  endloop
endfacet
facet normal -0.961088 -0.0336665 -0.274182
  outer loop
    vertex -0.9123624854440516 -0.3863016035659474 -0.1355203535884195
    vertex -0.9219601348494482 0.3370795781841621 -0.19070099034765
    vertex -0.7959235961016503 -0.2196843536798422 -0.5641315572779875
  endloop
endfacet
facet normal -0.998303 -0.0174831 -0.0555558
  outer loop
    vertex -0.9123624854440516 -0.3863016035659474 -0.1355203535884195
    vertex -0.9432995325147657 -0.07668376340758018 0.3229637632724057
    vertex -0.9219601348494482 0.3370795781841621 -0.19070099034765
  endloop
endfacet
facet normal 0.375319 0.883016 0.281813
  outer loop
    vertex 0.7071067811867193 0.6435942529053695 0.2928932188135061
    vertex 0.3607591889141273 0.9242240861859123 -0.1251504939176683
    vertex -0.02692365656305859 0.9454732234402432 0.3245851205381884
  endloop
endfacet
facet normal 0.644987 0.763889 -0.0215765
  outer loop
    vertex 0.7871987128638367 0.560426193165886 -0.2573726257376878
    vertex 0.3607591889141273 0.9242240861859123 -0.1251504939176683
    vertex 0.7071067811867193 0.6435942529053695 0.2928932188135061
  endloop
endfacet
facet normal -0.385624 0.9055 0.1771
  outer loop
    vertex -0.3322010291269973 0.9197958294209213 -0.2088494874948068
    vertex -0.7022661426092472 0.6803465293439918 0.2096446158486155
    vertex -0.02692365656305859 0.9454732234402432 0.3245851205381884
  endloop
endfacet
facet normal -0.000618344 0.99886 -0.0477272
  outer loop
    vertex -0.02692365656305859 0.9454732234402432 0.3245851205381884
    vertex 0.3607591889141273 0.9242240861859123 -0.1251504939176683
    vertex -0.3322010291269973 0.9197958294209213 -0.2088494874948068
  endloop
endfacet
facet normal -0.39162 0.802072 0.450903
  outer loop
    vertex -0.7022661426092472 0.6803465293439918 0.2096446158486155
    vertex -0.4792503668072031 0.5025950960448112 0.7195257155563436
    vertex -0.02692365656305859 0.9454732234402432 0.3245851205381884
  endloop
endfacet
facet normal -0.132571 0.786979 -0.602568
  outer loop
    vertex -0.4506319168181624 0.4868025265774638 -0.7483008590550905
    vertex -0.3322010291269973 0.9197958294209213 -0.2088494874948068
    vertex 0.2928932188134519 0.6435942529055867 -0.707106781186544
  endloop
endfacet
facet normal 0.0472079 0.897573 -0.438331
  outer loop
    vertex -0.3322010291269973 0.9197958294209213 -0.2088494874948068
    vertex 0.3607591889141273 0.9242240861859123 -0.1251504939176683
    vertex 0.2928932188134519 0.6435942529055867 -0.707106781186544
  endloop
endfacet
facet normal 0.509494 0.750319 -0.421233
  outer loop
    vertex 0.2928932188134519 0.6435942529055867 -0.707106781186544
    vertex 0.3607591889141273 0.9242240861859123 -0.1251504939176683
    vertex 0.7871987128638367 0.560426193165886 -0.2573726257376878
  endloop
endfacet
facet normal -0.773178 0.223135 -0.593638
  outer loop
    vertex -0.9219601348494482 0.3370795781841621 -0.19070099034765
    vertex -0.4506319168181624 0.4868025265774638 -0.7483008590550905
    vertex -0.7959235961016503 -0.2196843536798422 -0.5641315572779875
  endloop
endfacet
facet normal -0.372048 -0.0596332 -0.926296
  outer loop
    vertex -0.4506319168181624 0.4868025265774638 -0.7483008590550905
    vertex -0.2800532214090475 -0.6034215938784265 -0.7466274661567402
    vertex -0.7959235961016503 -0.2196843536798422 -0.5641315572779875
  endloop
endfacet
facet normal -0.918345 0.325991 0.224438
  outer loop
    vertex -0.9432995325147657 -0.07668376340758018 0.3229637632724057
    vertex -0.7022661426092472 0.6803465293439918 0.2096446158486155
    vertex -0.9219601348494482 0.3370795781841621 -0.19070099034765
  endloop
endfacet
facet normal -0.656153 0.652264 -0.379492
  outer loop
    vertex -0.9219601348494482 0.3370795781841621 -0.19070099034765
    vertex -0.3322010291269973 0.9197958294209213 -0.2088494874948068
    vertex -0.4506319168181624 0.4868025265774638 -0.7483008590550905
  endloop
endfacet
facet normal -0.689839 0.691501 -0.214354
  outer loop
    vertex -0.9219601348494482 0.3370795781841621 -0.19070099034765
    vertex -0.7022661426092472 0.6803465293439918 0.2096446158486155
    vertex -0.3322010291269973 0.9197958294209213 -0.2088494874948068
  endloop
endfacet
facet normal -0.81683 0.330816 0.472598
  outer loop
    vertex -0.9432995325147657 -0.07668376340758018 0.3229637632724057
    vertex -0.4792503668072031 0.5025950960448112 0.7195257155563436
    vertex -0.7022661426092472 0.6803465293439918 0.2096446158486155
  endloop
endfacet
endsolid Created by Gmsh
